<?xml version="1.0" encoding="UTF-8"?>
<svg xmlns="http://www.w3.org/2000/svg" viewBox="0 0 76.5 60.99">
  <defs>
    <style>
      .cls-1 {
        fill: #fff;
      }

      .cls-2 {
        fill: #ffcb5c;
      }

      .cls-3 {
        fill: #1b998b;
      }

      .cls-4 {
        fill: #3a3a3a;
      }
    </style>
  </defs>
  <g id="Background">
    <rect class="cls-3" width="76.5" height="60.99"/>
  </g>
  <g id="text">
    <g>
      <path class="cls-4" d="m28.63,44.74v8.62s-10.99-10.18-10.99-10.21h9.4c.88,0,1.58.71,1.58,1.58Z"/>
      <path class="cls-1" d="m17.64,5.09v36.48h9.05c1.94,0,3.52,1.58,3.52,3.52v8.33h25.06v-4.13l-8.79-10.14h-22.45v-1.85h21.71c-.29-1.18-.7-2.91-1.01-4.36h-20.7v-1.85h20.36c-.06-.45-.08-.74-.02-.79.14-.13,1.43.27,2.95.79h1.54v.55c1.91.7,3.71,1.4,3.71,1.4l2.7,3.07V5.09H17.64Zm15.98,38.43h15.26v1.85h-15.26v-1.85Zm-9.57-18.62h24.83v1.85h-24.83v-1.85Zm0-6.21h24.83v1.85h-24.83v-1.85Zm0-6.21h24.83v1.85h-24.83v-1.85Z"/>
      <path class="cls-4" d="m63.82,56.73s.82.38,2.64-1.21c1.62-1.41,1.56-2.45,1.56-2.45l-7.66-8.79-7.66-8.79s-.01,1.03-1.6,2.41c-1.48,1.29-2.61,1.25-2.61,1.25l7.66,8.79,7.66,8.79Z"/>
      <path class="cls-2" d="m50.35,37.04c-1.35,1.17-2.73,1.22-2.73,1.22l-1.97-6.61,6.29,2.86s-.17,1.31-1.58,2.54Z"/>
    </g>
  </g>
</svg>