<?xml version="1.0" encoding="UTF-8"?>
<svg xmlns="http://www.w3.org/2000/svg" viewBox="0 0 425.82 424.38">
  <defs>
    <style>
      .cls-1, .cls-2 {
        fill: #fff;
      }

      .cls-3 {
        fill: #fafafa;
      }

      .cls-4 {
        opacity: .5;
      }

      .cls-5 {
        fill: #37474f;
      }

      .cls-6 {
        fill: #455a64;
      }

      .cls-7 {
        fill: #e0e0e0;
      }

      .cls-8 {
        opacity: .15;
      }

      .cls-9, .cls-10 {
        opacity: .3;
      }

      .cls-11 {
        fill: #27debf;
      }

      .cls-12 {
        opacity: .1;
      }

      .cls-2 {
        opacity: .6;
      }

      .cls-13, .cls-10 {
        fill: #263238;
      }
    </style>
  </defs>
  <g id="Device">
    <g id="Laptop">
      <path class="cls-6" d="m60.77,327.82c0,3.14,2.35,7.03,5.24,8.7l114.13,65.91c2.9,1.67,7.59,1.67,10.48,0l200.97-116.03c2.9-1.67,5.24-5.57,5.24-8.7,0-3.14-2.35-7.03-5.24-8.71l-114.13-65.91c-2.9-1.67-7.59-1.67-10.48,0l-200.97,116.03c-2.9,1.67-5.24,5.57-5.24,8.7Z"/>
      <path class="cls-5" d="m396.85,277.69c0,3.14-2.35,7.03-5.24,8.7l-200.98,116.04c-1.45.83-3.35,1.25-5.23,1.25v-11.35c1.89,0,3.79-.42,5.23-1.26l200.98-116.03c2.54-1.46,2.85-3.72.95-5.39,2.44,1.89,4.29,5.25,4.29,8.04Z"/>
      <path class="cls-13" d="m185.39,392.33v11.34c-1.9,0-3.8-.41-5.24-1.25l-114.14-65.91c-2.89-1.67-5.24-5.57-5.24-8.7,0-2.94,2.07-6.55,4.71-8.37-2.35,1.68-2.17,4.15.53,5.71l114.14,65.91c1.44.84,3.34,1.26,5.24,1.26Z"/>
      <path class="cls-6" d="m55.86,319.3c-2.72-1.57-2.57-4.22-2.57-7.56v-157.65c0-3.34,2.35-7.41,5.24-9.08L259.5,28.98c2.9-1.67,5.57-.46,8.28,1.11,2.72,1.57,4.45,2.92,4.45,6.26v157.65c0,3.34-2.35,7.41-5.24,9.08l-200.97,116.03c-2.9,1.67-7.44,1.76-10.16.19Z"/>
      <path class="cls-5" d="m60.77,158.44v157.65c0,3.34,2.35,4.7,5.24,3.03l200.97-116.03c2.9-1.67,5.24-5.74,5.24-9.08V36.35c0-3.34-2.35-4.7-5.24-3.03l-200.97,116.03c-2.9,1.67-5.24,5.74-5.24,9.08Z"/>
      <path class="cls-13" d="m65.4,319.43c-2.89,1.36-7.01,1.33-9.54-.13-2.71-1.56-2.57-4.21-2.57-7.55v-157.65c0-1.67.58-3.52,1.54-5.16l7.48,4.33h0c-.94,1.66-1.54,3.5-1.54,5.17v157.65c0,3.1,2.02,4.49,4.62,3.34Z"/>
      <path class="cls-11" d="m68.84,155.41l193.76-111.84c1.74-1,3.15-.19,3.15,1.82v144.24c0,2.01-1.41,4.44-3.15,5.45l-193.76,111.84c-1.74,1-3.15.19-3.15-1.82v-144.24c0-2.01,1.41-4.44,3.15-5.45Z"/>
      <path class="cls-9" d="m68.84,155.41l193.76-111.84c1.74-1,3.15-.19,3.15,1.82v144.24c0,2.01-1.41,4.44-3.15,5.45l-193.76,111.84c-1.74,1-3.15.19-3.15-1.82v-144.24c0-2.01,1.41-4.44,3.15-5.45Z"/>
      <path class="cls-5" d="m80.52,319.42l186.55-107.7c1.45-.84,3.79-.84,5.24,0l5.43,2.85c1.45.84,1.45,2.19,0,3.03l-186.58,107.68c-1.45.84-3.79.84-5.24,0l-5.4-2.83c-1.45-.84-1.45-2.19,0-3.03Z"/>
      <g>
        <path class="cls-10" d="m95.16,328.12l186.55-107.7c1.45-.84,3.59-.95,4.79-.26l48.56,28.03c1.2.69,1,1.93-.45,2.77l-186.33,107.56c-1.45.84-3.59.96-4.8.27l-48.76-27.9c-1.2-.69-1-1.92.45-2.76Z"/>
        <path class="cls-11" d="m255.26,265.21l5.84-3.37c.25-.14.28-.35.08-.47l-5.15-2.97c-.2-.12-.57-.1-.82.05l-5.84,3.37c-.25.14-.28.35-.08.47l5.15,2.97c.2.12.57.1.82-.05Zm-8.15-11.45l-5.84,3.37c-.25.14-.28.35-.08.47l5.15,2.97c.2.12.57.1.82-.05l5.84-3.37c.25-.14.29-.35.08-.47l-5.15-2.97c-.2-.12-.57-.1-.82.05Zm-18.87,10.89l-9.88,5.71c-.25.14-.28.35-.08.47l5.15,2.97c.2.12.57.1.82-.05l9.88-5.71c.25-.14.28-.35.08-.47l-5.15-2.98c-.2-.12-.57-.1-.82.05Zm10.33-5.97l-5.84,3.37c-.25.14-.28.35-.08.47l5.15,2.97c.2.12.57.1.82-.05l5.84-3.37c.25-.14.28-.35.08-.47l-5.15-2.97c-.2-.12-.57-.1-.82.05Zm-22.91,13.23l-5.84,3.37c-.25.14-.28.35-.08.47l5.15,2.97c.2.12.57.1.82-.05l5.84-3.37c.25-.14.28-.35.08-.47l-5.15-2.97c-.2-.12-.57-.1-.82.05Zm-8.54,4.93l-5.84,3.37c-.25.14-.28.35-.08.47l5.15,2.97c.2.12.57.1.82-.05l5.84-3.37c.25-.14.28-.35.08-.47l-5.15-2.97c-.2-.12-.57-.1-.82.05Zm21.64,13.02l5.84-3.37c.25-.14.28-.35.08-.47l-5.15-2.97c-.2-.12-.57-.1-.82.05l-5.84,3.37c-.25.14-.28.35-.08.47l5.15,2.97c.2.12.57.1.82-.05Zm-8.54,4.93l5.84-3.37c.25-.14.28-.35.08-.47l-5.15-2.97c-.2-.12-.57-.1-.82.05l-5.84,3.37c-.25.14-.28.35-.08.47l5.15,2.97c.2.12.57.1.82-.05Zm-8.54,4.93l5.84-3.37c.25-.14.28-.35.08-.47l-5.15-2.97c-.2-.12-.57-.1-.82.05l-5.84,3.37c-.25.14-.28.35-.08.47l5.15,2.97c.2.12.57.1.82-.05Zm-8.54,4.93l5.84-3.37c.25-.14.28-.35.08-.47l-5.15-2.97c-.2-.12-.57-.1-.82.05l-5.84,3.37c-.25.14-.28.35-.08.47l5.15,2.97c.2.12.57.1.82-.05Zm43.57-34.51l5.84-3.37c.25-.14.28-.35.08-.47l-5.15-2.97c-.2-.12-.57-.1-.82.05l-5.84,3.37c-.25.14-.29.35-.08.47l5.15,2.97c.2.12.57.1.82-.05Zm-9.42,14.79l13.03-7.52c.25-.14.28-.35.08-.47l-13.25-7.65c-.2-.12-.57-.1-.82.05l-6.74,3.89c-.25.14-.28.35-.08.47l7.37,4.25c.2.12.17.33-.08.47l-5.39,3.11c-.25.14-.28.35-.08.47l5.15,2.97c.2.12.57.1.82-.05Zm-38.72-3.16l-5.84,3.37c-.25.14-.28.35-.08.47l5.15,2.97c.2.12.57.1.82-.05l5.84-3.37c.25-.14.28-.35.08-.47l-5.15-2.97c-.2-.12-.57-.1-.82.05Zm-8.54,4.93l-5.84,3.37c-.25.14-.28.35-.08.47l5.15,2.97c.2.12.57.1.82-.05l5.84-3.37c.25-.14.28-.35.08-.47l-5.15-2.97c-.2-.12-.57-.1-.82.05Zm-47.47,52.49c.2.12.57.1.82-.05l5.84-3.37c.25-.14.28-.35.08-.47l-5.15-2.97c-.2-.12-.57-.1-.82.05l-5.84,3.37c-.25.14-.28.35-.08.47l5.15,2.97Zm-20.83-13.06l-5.84,3.37c-.25.14-.28.35-.08.47l5.15,2.97c.2.12.57.1.82-.05l5.84-3.37c.25-.14.28-.35.08-.47l-5.15-2.97c-.2-.12-.57-.1-.82.05Zm10.48,9.68c.2.12.57.1.82-.05l5.84-3.37c.25-.14.28-.35.08-.47l-5.15-2.97c-.2-.12-.57-.1-.82.05l-5.84,3.37c-.25.14-.28.35-.08.47l5.15,2.97Zm23.76,5.42l5.84-3.37c.25-.14.28-.35.08-.47l-5.15-2.97c-.2-.12-.57-.1-.82.05l-5.84,3.37c-.25.14-.28.35-.08.47l5.15,2.97c.2.12.57.1.82-.05Zm-9.35,4.98c.2.12.57.1.82-.05l5.84-3.37c.25-.14.28-.35.08-.47l-5.15-2.97c-.2-.12-.57-.1-.82.05l-5.84,3.37c-.25.14-.28.35-.08.47l5.15,2.97Zm-16.35-25l-5.84,3.37c-.25.14-.28.35-.08.47l5.15,2.97c.2.12.57.1.82-.05l5.84-3.37c.25-.14.28-.35.08-.47l-5.15-2.97c-.2-.12-.57-.1-.82.05Zm42.68-24.64l-5.84,3.37c-.25.14-.28.35-.08.47l5.15,2.97c.2.12.57.1.82-.05l5.84-3.37c.25-.14.28-.35.08-.47l-5.15-2.97c-.2-.12-.57-.1-.82.05Zm-34.15,19.71l-5.84,3.37c-.25.14-.28.35-.08.47l5.15,2.97c.2.12.57.1.82-.05l5.84-3.37c.25-.14.28-.35.08-.47l-5.15-2.97c-.2-.12-.57-.1-.82.05Zm42.68-24.64l-5.84,3.37c-.25.14-.28.35-.08.47l5.15,2.97c.2.12.57.1.82-.05l5.84-3.37c.25-.14.28-.35.08-.47l-5.15-2.97c-.2-.12-.57-.1-.82.05Zm-17.07,9.86l-5.84,3.37c-.25.14-.29.35-.08.47l5.15,2.97c.2.12.57.1.82-.05l5.84-3.37c.25-.14.29-.35.08-.47l-5.15-2.97c-.2-.12-.57-.1-.82.05Zm-8.54,4.93l-5.84,3.37c-.25.14-.28.35-.08.47l5.15,2.97c.2.12.57.1.82-.05l5.84-3.37c.25-.14.28-.35.08-.47l-5.15-2.97c-.2-.12-.57-.1-.82.05Zm-8.54,4.93l-5.84,3.37c-.25.14-.28.35-.08.47l5.15,2.97c.2.12.57.1.82-.05l5.84-3.37c.25-.14.28-.35.08-.47l-5.15-2.97c-.2-.12-.57-.1-.82.05Zm38.72,3.16l5.84-3.37c.25-.14.28-.35.08-.47l-5.15-2.97c-.2-.12-.57-.1-.82.05l-5.84,3.37c-.25.14-.28.35-.08.47l5.15,2.97c.2.12.57.1.82-.05Zm79.9-71.64l-5.84,3.37c-.25.14-.28.35-.08.47l5.15,2.97c.2.12.57.1.82-.05l5.84-3.37c.25-.14.28-.35.08-.47l-5.15-2.97c-.2-.12-.57-.1-.82.05Zm-10.33,5.97l-5.84,3.37c-.25.14-.28.35-.08.47l5.15,2.97c.2.12.57.1.82-.05l5.84-3.37c.25-.14.28-.35.08-.47l-5.15-2.97c-.2-.12-.57-.1-.82.05Zm18.87-10.89l-5.84,3.37c-.25.14-.28.35-.08.47l5.15,2.97c.2.12.57.1.82-.05l5.84-3.37c.25-.14.28-.35.08-.47l-5.15-2.97c-.2-.12-.57-.1-.82.05Zm-47.56,43.61l5.84-3.37c.25-.14.28-.35.08-.47l-5.15-2.97c-.2-.12-.57-.1-.82.05l-5.84,3.37c-.25.14-.28.35-.08.47l5.15,2.97c.2.12.57.1.82-.05Zm56.92-48.59c-.2-.12-.57-.1-.82.05l-5.84,3.37c-.25.14-.28.35-.08.47l5.15,2.97c.2.12.57.1.82-.05l5.84-3.37c.25-.14.28-.35.08-.47l-5.15-2.97Zm-89.25,76.61l5.84-3.37c.25-.14.28-.35.08-.47l-5.15-2.97c-.2-.12-.57-.1-.82.05l-5.84,3.37c-.25.14-.28.35-.08.47l5.15,2.97c.2.12.57.1.82-.05Zm104.68-60.44l5.84-3.37c.25-.14.28-.35.08-.47l-5.15-2.97c-.2-.12-.57-.1-.82.05l-5.84,3.37c-.25.14-.28.35-.08.47l5.15,2.97c.2.12.57.1.82-.05Zm-16.64.25l5.84-3.37c.25-.14.28-.35.08-.47l-5.15-2.97c-.2-.12-.57-.1-.82.05l-5.84,3.37c-.25.14-.29.35-.08.47l5.15,2.97c.2.12.57.1.82-.05Zm9.31-11.75c-.2-.12-.57-.1-.82.05l-5.84,3.37c-.25.14-.28.35-.08.47l5.15,2.97c.2.12.57.1.82-.05l5.84-3.37c.25-.14.28-.35.08-.47l-5.15-2.97Zm1.8-1.04l13.25,7.65c.2.12.57.1.82-.05l5.84-3.37c.25-.14.28-.35.08-.47l-13.25-7.65c-.2-.12-.57-.1-.82.05l-5.84,3.37c-.25.14-.28.35-.08.47Zm-19.69,10.94l-5.84,3.37c-.25.14-.28.35-.08.47l5.15,2.97c.2.12.57.1.82-.05l5.84-3.37c.25-.14.28-.35.08-.47l-5.15-2.97c-.2-.12-.57-.1-.82.05Zm-64.25,37.09l-5.84,3.37c-.25.14-.28.35-.08.47l5.15,2.97c.2.12.57.1.82-.05l5.84-3.37c.25-.14.28-.35.08-.47l-5.15-2.97c-.2-.12-.57-.1-.82.05Zm80.12-30.53c.2.12.57.1.82-.05l5.84-3.37c.25-.14.28-.35.08-.47l-5.15-2.97c-.2-.12-.57-.1-.82.05l-5.84,3.37c-.25.14-.28.35-.08.47l5.15,2.97Zm-71.58,25.6l-5.84,3.37c-.25.14-.28.35-.08.47l5.15,2.97c.2.12.57.1.82-.05l5.84-3.37c.25-.14.28-.35.08-.47l-5.15-2.97c-.2-.12-.57-.1-.82.05Zm-67.25,54.56c.2.12.57.1.82-.05l5.84-3.37c.25-.14.28-.35.08-.47l-5.15-2.97c-.2-.12-.57-.1-.82.05l-5.84,3.37c-.25.14-.28.35-.08.47l5.15,2.97Zm-9.58-10.2l-5.84,3.37c-.25.14-.28.35-.08.47l5.15,2.97c.2.12.57.1.82-.05l5.84-3.37c.25-.14.28-.35.08-.47l-5.15-2.97c-.2-.12-.57-.1-.82.05Zm18.93,5.22l5.84-3.37c.25-.14.29-.35.08-.47l-5.15-2.97c-.2-.12-.57-.1-.82.05l-5.84,3.37c-.25.14-.28.35-.08.47l5.15,2.97c.2.12.57.1.82-.05Zm8.54-4.93l5.84-3.37c.25-.14.28-.35.08-.47l-5.15-2.97c-.2-.12-.57-.1-.82.05l-5.84,3.37c-.25.14-.28.35-.08.47l5.15,2.97c.2.12.57.1.82-.05Zm8.54-4.93l5.84-3.37c.25-.14.28-.35.08-.47l-5.15-2.97c-.2-.12-.57-.1-.82.05l-5.84,3.37c-.25.14-.28.35-.08.47l5.15,2.97c.2.12.57.1.82-.05Zm-27.47-.3l-5.84,3.37c-.25.14-.28.35-.08.47l5.15,2.97c.2.12.57.1.82-.05l5.84-3.37c.25-.14.28-.35.08-.47l-5.15-2.97c-.2-.12-.57-.1-.82.05Zm8.54-4.93l-5.84,3.37c-.25.14-.28.35-.08.47l5.15,2.97c.2.12.57.1.82-.05l5.84-3.37c.25-.14.28-.35.08-.47l-5.15-2.97c-.2-.12-.57-.1-.82.05Zm34.15-19.71l-5.84,3.37c-.25.14-.28.35-.08.47l5.15,2.97c.2.12.57.1.82-.05l5.84-3.37c.25-.14.28-.35.08-.47l-5.15-2.97c-.2-.12-.57-.1-.82.05Zm-8.54,4.93l-5.84,3.37c-.25.14-.28.35-.08.47l5.15,2.97c.2.12.57.1.82-.05l5.84-3.37c.25-.14.28-.35.08-.47l-5.15-2.97c-.2-.12-.57-.1-.82.05Zm17.07-9.86l-5.84,3.37c-.25.14-.28.35-.08.47l5.15,2.98c.2.12.57.1.82-.05l5.84-3.37c.25-.14.28-.35.08-.47l-5.15-2.97c-.2-.12-.57-.1-.82.05Zm-34.15,19.71l-5.84,3.37c-.25.14-.29.35-.08.47l5.15,2.97c.2.12.57.1.82-.05l5.84-3.37c.25-.14.28-.35.08-.47l-5.15-2.97c-.2-.12-.57-.1-.82.05Zm8.54-4.93l-5.84,3.37c-.25.14-.28.35-.08.47l5.15,2.97c.2.12.57.1.82-.05l5.84-3.37c.25-.14.28-.35.08-.47l-5.15-2.97c-.2-.12-.57-.1-.82.05Zm-11.15,31.95l5.84-3.37c.25-.14.28-.35.08-.47l-5.15-2.97c-.2-.12-.57-.1-.82.05l-5.84,3.37c-.25.14-.28.35-.08.47l5.15,2.97c.2.12.57.1.82-.05Zm-45.34-2.31l-5.15-2.97c-.2-.12-.57-.1-.82.05l-5.84,3.37c-.25.14-.28.35-.08.47l5.15,2.97c.2.12.57.1.82-.05l5.84-3.37c.25-.14.28-.35.08-.47Zm11.25,2.86l-5.15-2.97c-.2-.12-.57-.1-.82.05l-8.99,5.19c-.25.14-.28.35-.08.47l5.15,2.97c.2.12.57.1.82-.05l8.99-5.19c.25-.14.28-.35.08-.47Zm-18.83-8.8l-5.15-2.97c-.2-.12-.57-.1-.82.05l-7.19,4.15c-.25.14-.28.35-.08.47l5.15,2.97c.2.12.57.1.82-.05l7.19-4.15c.25-.14.28-.35.08-.47Zm5.51-3.18c.2.12.57.1.82-.05l5.84-3.37c.25-.14.28-.35.08-.47l-5.15-2.97c-.2-.12-.57-.1-.82.05l-5.84,3.37c-.25.14-.28.35-.08.47l5.15,2.97Zm23.67,15.36l-5.15-2.97c-.2-.12-.57-.1-.82.05l-11.23,6.48c-.25.14-.28.35-.08.47l5.15,2.97c.2.12.57.1.82-.05l11.23-6.49c.25-.14.28-.35.08-.47Zm4.06,7.01l-5.15-2.97c-.2-.12-.57-.1-.82.05l-7.19,4.15c-.25.14-.28.35-.08.47l5.15,2.97c.2.12.57.1.82-.05l7.19-4.15c.25-.14.28-.35.08-.47Zm35.74-59.02c.2.12.57.1.82-.05l5.84-3.37c.25-.14.29-.35.08-.47l-5.15-2.97c-.2-.12-.57-.1-.82.05l-5.84,3.37c-.25.14-.28.35-.08.47l5.15,2.97Zm-17.07,9.86c.2.12.57.1.82-.05l5.84-3.37c.25-.14.28-.35.08-.47l-5.15-2.97c-.2-.12-.57-.1-.82.05l-5.84,3.37c-.25.14-.28.35-.08.47l5.15,2.97Zm-37.86,21.86c.2.12.57.1.82-.05l5.84-3.37c.25-.14.28-.35.08-.47l-5.15-2.97c-.2-.12-.57-.1-.82.05l-5.84,3.37c-.25.14-.28.35-.08.47l5.15,2.97Zm46.4-26.79c.2.12.57.1.82-.05l5.84-3.37c.25-.14.28-.35.08-.47l-5.15-2.97c-.2-.12-.57-.1-.82.05l-5.84,3.37c-.25.14-.28.35-.08.47l5.15,2.97Zm-17.07,9.86c.2.12.57.1.82-.05l5.84-3.37c.25-.14.28-.35.08-.47l-5.15-2.97c-.2-.12-.57-.1-.82.05l-5.84,3.37c-.25.14-.28.35-.08.47l5.15,2.97Zm-5.38,44.9c-.2-.12-.57-.1-.82.05l-8.99,5.19c-.25.14-.28.35-.08.47l5.15,2.97c.2.12.57.1.82-.05l8.99-5.19c.25-.14.28-.35.08-.47l-5.15-2.97Zm-6.87-37.83c.2.12.57.1.82-.05l5.84-3.37c.25-.14.28-.35.08-.47l-5.15-2.97c-.2-.12-.57-.1-.82.05l-5.84,3.37c-.25.14-.28.35-.08.47l5.15,2.97Zm-8.54,4.93c.2.12.57.1.82-.05l5.84-3.37c.25-.14.28-.35.08-.47l-5.15-2.97c-.2-.12-.57-.1-.82.05l-5.84,3.37c-.25.14-.28.35-.08.47l5.15,2.97Zm173.55-58.41c-.2-.12-.57-.1-.82.05l-14.38,8.3c-.25.14-.28.35-.08.47l5.15,2.97c.2.12.57.1.82-.05l14.38-8.3c.25-.14.28-.35.08-.47l-5.15-2.97Zm-18.87,10.89c-.2-.12-.57-.1-.82.05l-5.84,3.37c-.25.14-.28.35-.08.47l5.15,2.97c.2.12.57.1.82-.05l5.84-3.37c.25-.14.28-.35.08-.47l-5.15-2.97Zm-115.8,63.88l5.84-3.37c.25-.14.28-.35.08-.47l-5.15-2.97c-.2-.12-.57-.1-.82.05l-5.84,3.37c-.25.14-.28.35-.08.47l5.15,2.97c.2.12.57.1.82-.05Zm98.73-54.02c-.2-.12-.57-.1-.82.05l-5.84,3.37c-.25.14-.28.35-.08.47l5.15,2.97c.2.12.57.1.82-.05l5.84-3.37c.25-.14.28-.35.08-.47l-5.15-2.97Zm44.48-25.68c-.2-.12-.57-.1-.82.05l-5.84,3.37c-.25.14-.28.35-.08.47l5.15,2.97c.2.12.57.1.82-.05l5.84-3.37c.25-.14.28-.35.08-.47l-5.15-2.97Zm13.69-1.95l-13.26-7.65c-.2-.12-.57-.1-.82.05l-5.84,3.37c-.25.14-.28.35-.08.47l13.25,7.65c.2.12.57.1.82-.05l5.84-3.37c.25-.14.28-.35.08-.47Zm-90.07,46.05c-.2-.12-.57-.1-.82.05l-7.19,4.15c-.25.14-.28.35-.08.47l5.15,2.97c.2.12.57.1.82-.05l7.19-4.15c.25-.14.28-.36.08-.47l-5.15-2.97Zm21.57-12.45c-.2-.12-.57-.1-.82.05l-8.99,5.19c-.25.14-.28.35-.08.47l5.15,2.97c.2.12.57.1.82-.05l8.99-5.19c.25-.14.28-.35.08-.47l-5.15-2.97Zm-41.33,23.86c-.2-.12-.57-.1-.82.05l-48.07,27.76c-.25.14-.29.35-.08.47l5.15,2.97c.2.12.57.1.82-.05l48.07-27.76c.25-.14.28-.35.08-.47l-5.15-2.97Zm-50.77,29.31c-.2-.12-.57-.1-.82.05l-7.19,4.15c-.25.14-.28.35-.08.47l5.15,2.97c.2.12.57.1.82-.05l7.19-4.15c.25-.14.28-.35.08-.47l-5.15-2.97Zm60.65-35.02c-.2-.12-.57-.1-.82.05l-7.19,4.15c-.25.14-.29.35-.08.47l5.15,2.97c.2.12.57.1.82-.05l7.19-4.15c.25-.14.28-.35.08-.47l-5.15-2.97Zm-70.54,40.73c-.2-.12-.57-.1-.82.05l-7.19,4.15c-.25.14-.28.35-.08.47l5.15,2.97c.2.12.57.1.82-.05l7.19-4.15c.25-.14.28-.35.08-.47l-5.15-2.97Zm90.31-52.14c-.2-.12-.57-.1-.82.05l-7.19,4.15c-.25.14-.28.35-.08.47l5.15,2.97c.2.12.57.1.82-.05l7.19-4.15c.25-.14.28-.35.08-.47l-5.15-2.97Zm30.55-17.64c-.2-.12-.57-.1-.82.05l-5.84,3.37c-.25.14-.28.35-.08.47l5.15,2.97c.2.12.57.1.82-.05l5.84-3.37c.25-.14.28-.35.08-.47l-5.15-2.97Zm18.53-13.68l5.84-3.37c.25-.14.29-.35.08-.47l-5.15-2.97c-.2-.12-.57-.1-.82.05l-5.84,3.37c-.25.14-.28.35-.08.47l5.15,2.97c.2.12.57.1.82-.05Zm-35.08,1.54l5.84-3.37c.25-.14.28-.35.08-.47l-5.15-2.97c-.2-.12-.57-.1-.82.05l-5.84,3.37c-.25.14-.28.35-.08.47l5.15,2.97c.2.12.57.1.82-.05Zm-22.43,31.66l17.07-9.86c.25-.14.28-.35.08-.47l-5.15-2.97c-.2-.12-.57-.1-.82.05l-17.07,9.86c-.25.14-.28.35-.08.47l5.15,2.97c.2.12.57.1.82-.05Zm48.16-28.23c.2.12.57.1.82-.05l5.84-3.37c.25-.14.28-.35.08-.47l-5.15-2.97c-.2-.12-.57-.1-.82.05l-5.84,3.37c-.25.14-.28.35-.08.47l5.15,2.97Zm-7.29-4.72l5.84-3.37c.25-.14.28-.35.08-.47l-5.15-2.97c-.2-.12-.57-.1-.82.05l-5.84,3.37c-.25.14-.28.35-.08.47l5.15,2.97c.2.12.57.1.82-.05Zm-49.41,37.88l5.84-3.37c.25-.14.28-.35.08-.47l-5.15-2.97c-.2-.12-.57-.1-.82.05l-5.84,3.37c-.25.14-.28.35-.08.47l5.15,2.97c.2.12.57.1.82-.05Zm37.82-22.26c.2.12.57.1.82-.05l5.84-3.37c.25-.14.28-.35.08-.47l-5.15-2.97c-.2-.12-.57-.1-.82.05l-5.84,3.37c-.25.14-.28.35-.08.47l5.15,2.97Zm-80.5,46.9l5.84-3.37c.25-.14.28-.35.08-.47l-5.15-2.97c-.2-.12-.57-.1-.82.05l-5.84,3.37c-.25.14-.28.35-.08.47l5.15,2.97c.2.12.57.1.82-.05Zm8.54-4.93l5.84-3.37c.25-.14.28-.35.08-.47l-5.15-2.97c-.2-.12-.57-.1-.82.05l-5.84,3.37c-.25.14-.28.35-.08.47l5.15,2.97c.2.12.57.1.82-.05Zm-17.07,9.86l5.84-3.37c.25-.14.28-.35.08-.47l-5.15-2.97c-.2-.12-.57-.1-.82.05l-5.84,3.37c-.25.14-.28.35-.08.47l5.15,2.98c.2.12.57.1.82-.05Zm34.15-19.71l5.84-3.37c.25-.14.28-.36.08-.47l-5.15-2.97c-.2-.12-.57-.1-.82.05l-5.84,3.37c-.25.14-.28.35-.08.47l5.15,2.98c.2.12.57.1.82-.05Zm-8.54,4.93l5.84-3.37c.25-.14.28-.35.08-.47l-5.15-2.97c-.2-.12-.57-.1-.82.05l-5.84,3.37c-.25.14-.28.35-.08.47l5.15,2.97c.2.12.57.1.82-.05Zm17.07-9.86l5.84-3.37c.25-.14.28-.35.08-.47l-5.15-2.97c-.2-.12-.57-.1-.82.05l-5.84,3.37c-.25.14-.28.35-.08.47l5.15,2.97c.2.12.57.1.82-.05Zm47.17-68.22c.2.12.57.1.82-.05l5.84-3.37c.25-.14.28-.35.08-.47l-1.37-.79c-.2-.12-.57-.1-.82.05l-5.84,3.37c-.25.14-.28.35-.08.47l1.37.79Zm-42.59,26.77c.2.12.57.1.82-.05l5.84-3.37c.25-.14.28-.35.08-.47l-5.15-2.97c-.2-.12-.57-.1-.82.05l-5.84,3.37c-.25.14-.28.35-.08.47l5.15,2.97Zm17.07-9.86c.2.12.57.1.82-.05l5.84-3.37c.25-.14.28-.35.08-.47l-5.15-2.97c-.2-.12-.57-.1-.82.05l-5.84,3.37c-.25.14-.28.35-.08.47l5.15,2.97Zm-27.5,15.88c.2.12.57.1.82-.05l5.84-3.37c.25-.14.28-.35.08-.47l-5.15-2.97c-.2-.12-.57-.1-.82.05l-5.84,3.37c-.25.14-.28.35-.08.47l5.15,2.97Zm18.96-10.95c.2.12.57.1.82-.05l5.84-3.37c.25-.14.28-.35.08-.47l-5.15-2.97c-.2-.12-.57-.1-.82.05l-5.84,3.37c-.25.14-.28.35-.08.47l5.15,2.97Zm-36.03,20.8c.2.12.57.1.82-.05l5.84-3.37c.25-.14.28-.35.08-.47l-5.15-2.97c-.2-.12-.57-.1-.82.05l-5.84,3.37c-.25.14-.28.35-.08.47l5.15,2.97Zm8.54-4.93c.2.12.57.1.82-.05l5.84-3.37c.25-.14.28-.35.08-.47l-5.15-2.97c-.2-.12-.57-.1-.82.05l-5.84,3.37c-.25.14-.28.35-.08.47l5.15,2.97Zm44.48-27.86c.2.12.57.1.82-.05l5.84-3.37c.25-.14.28-.35.08-.47l-1.37-.79c-.2-.12-.57-.1-.82.05l-5.84,3.37c-.25.14-.28.35-.08.47l1.37.79Zm25.61-14.79c.2.12.57.1.82-.05l5.84-3.37c.25-.14.28-.35.08-.47l-1.37-.79c-.2-.12-.57-.1-.82.05l-5.84,3.37c-.25.14-.28.35-.08.47l1.37.79Zm10.82,6.25c.2.12.57.1.82-.05l5.84-3.37c.25-.14.28-.35.08-.47l-5.15-2.97c-.2-.12-.57-.1-.82.05l-5.84,3.37c-.25.14-.28.35-.08.47l5.15,2.97Zm16.59,18.92l5.84-3.37c.25-.14.29-.35.08-.47l-5.15-2.97c-.2-.12-.57-.1-.82.05l-5.84,3.37c-.25.14-.28.35-.08.47l5.15,2.98c.2.12.57.1.82-.05Zm-44.48-15.31c.2.12.57.1.82-.05l5.84-3.37c.25-.14.28-.35.08-.47l-1.37-.79c-.2-.12-.57-.1-.82.05l-5.84,3.37c-.25.14-.28.35-.08.47l1.37.79Zm-70.09,42.65c.2.12.57.1.82-.05l5.84-3.37c.25-.14.29-.35.08-.47l-5.15-2.97c-.2-.12-.57-.1-.82.05l-5.84,3.37c-.25.14-.28.35-.08.47l5.15,2.97Z"/>
        <path class="cls-12" d="m255.26,265.21l5.84-3.37c.25-.14.28-.35.08-.47l-5.15-2.97c-.2-.12-.57-.1-.82.05l-5.84,3.37c-.25.14-.28.35-.08.47l5.15,2.97c.2.12.57.1.82-.05Zm-8.15-11.45l-5.84,3.37c-.25.14-.28.35-.08.47l5.15,2.97c.2.12.57.1.82-.05l5.84-3.37c.25-.14.29-.35.08-.47l-5.15-2.97c-.2-.12-.57-.1-.82.05Zm-18.87,10.89l-9.88,5.71c-.25.14-.28.35-.08.47l5.15,2.97c.2.12.57.1.82-.05l9.88-5.71c.25-.14.28-.35.08-.47l-5.15-2.98c-.2-.12-.57-.1-.82.05Zm10.33-5.97l-5.84,3.37c-.25.14-.28.35-.08.47l5.15,2.97c.2.12.57.1.82-.05l5.84-3.37c.25-.14.28-.35.08-.47l-5.15-2.97c-.2-.12-.57-.1-.82.05Zm-22.91,13.23l-5.84,3.37c-.25.14-.28.35-.08.47l5.15,2.97c.2.12.57.1.82-.05l5.84-3.37c.25-.14.28-.35.08-.47l-5.15-2.97c-.2-.12-.57-.1-.82.05Zm-8.54,4.93l-5.84,3.37c-.25.14-.28.35-.08.47l5.15,2.97c.2.12.57.1.82-.05l5.84-3.37c.25-.14.28-.35.08-.47l-5.15-2.97c-.2-.12-.57-.1-.82.05Zm21.64,13.02l5.84-3.37c.25-.14.28-.35.08-.47l-5.15-2.97c-.2-.12-.57-.1-.82.05l-5.84,3.37c-.25.14-.28.35-.08.47l5.15,2.97c.2.12.57.1.82-.05Zm-8.54,4.93l5.84-3.37c.25-.14.28-.35.08-.47l-5.15-2.97c-.2-.12-.57-.1-.82.05l-5.84,3.37c-.25.14-.28.35-.08.47l5.15,2.97c.2.12.57.1.82-.05Zm-8.54,4.93l5.84-3.37c.25-.14.28-.35.08-.47l-5.15-2.97c-.2-.12-.57-.1-.82.05l-5.84,3.37c-.25.14-.28.35-.08.47l5.15,2.97c.2.12.57.1.82-.05Zm-8.54,4.93l5.84-3.37c.25-.14.28-.35.08-.47l-5.15-2.97c-.2-.12-.57-.1-.82.05l-5.84,3.37c-.25.14-.28.35-.08.47l5.15,2.97c.2.12.57.1.82-.05Zm43.57-34.51l5.84-3.37c.25-.14.28-.35.08-.47l-5.15-2.97c-.2-.12-.57-.1-.82.05l-5.84,3.37c-.25.14-.29.35-.08.47l5.15,2.97c.2.12.57.1.82-.05Zm-9.42,14.79l13.03-7.52c.25-.14.28-.35.08-.47l-13.25-7.65c-.2-.12-.57-.1-.82.05l-6.74,3.89c-.25.14-.28.35-.08.47l7.37,4.25c.2.12.17.33-.08.47l-5.39,3.11c-.25.14-.28.35-.08.47l5.15,2.97c.2.12.57.1.82-.05Zm-38.72-3.16l-5.84,3.37c-.25.14-.28.35-.08.47l5.15,2.97c.2.12.57.1.82-.05l5.84-3.37c.25-.14.28-.35.08-.47l-5.15-2.97c-.2-.12-.57-.1-.82.05Zm-8.54,4.93l-5.84,3.37c-.25.14-.28.35-.08.47l5.15,2.97c.2.12.57.1.82-.05l5.84-3.37c.25-.14.28-.35.08-.47l-5.15-2.97c-.2-.12-.57-.1-.82.05Zm-47.47,52.49c.2.12.57.1.82-.05l5.84-3.37c.25-.14.28-.35.08-.47l-5.15-2.97c-.2-.12-.57-.1-.82.05l-5.84,3.37c-.25.14-.28.35-.08.47l5.15,2.97Zm-20.83-13.06l-5.84,3.37c-.25.14-.28.35-.08.47l5.15,2.97c.2.12.57.1.82-.05l5.84-3.37c.25-.14.28-.35.08-.47l-5.15-2.97c-.2-.12-.57-.1-.82.05Zm10.48,9.68c.2.12.57.1.82-.05l5.84-3.37c.25-.14.28-.35.08-.47l-5.15-2.97c-.2-.12-.57-.1-.82.05l-5.84,3.37c-.25.14-.28.35-.08.47l5.15,2.97Zm23.76,5.42l5.84-3.37c.25-.14.28-.35.08-.47l-5.15-2.97c-.2-.12-.57-.1-.82.05l-5.84,3.37c-.25.14-.28.35-.08.47l5.15,2.97c.2.12.57.1.82-.05Zm-9.35,4.98c.2.12.57.1.82-.05l5.84-3.37c.25-.14.28-.35.08-.47l-5.15-2.97c-.2-.12-.57-.1-.82.05l-5.84,3.37c-.25.14-.28.35-.08.47l5.15,2.97Zm-16.35-25l-5.84,3.37c-.25.14-.28.35-.08.47l5.15,2.97c.2.12.57.1.82-.05l5.84-3.37c.25-.14.28-.35.08-.47l-5.15-2.97c-.2-.12-.57-.1-.82.05Zm42.68-24.64l-5.84,3.37c-.25.14-.28.35-.08.47l5.15,2.97c.2.12.57.1.82-.05l5.84-3.37c.25-.14.28-.35.08-.47l-5.15-2.97c-.2-.12-.57-.1-.82.05Zm-34.15,19.71l-5.84,3.37c-.25.14-.28.35-.08.47l5.15,2.97c.2.12.57.1.82-.05l5.84-3.37c.25-.14.28-.35.08-.47l-5.15-2.97c-.2-.12-.57-.1-.82.05Zm42.68-24.64l-5.84,3.37c-.25.14-.28.35-.08.47l5.15,2.97c.2.12.57.1.82-.05l5.84-3.37c.25-.14.28-.35.08-.47l-5.15-2.97c-.2-.12-.57-.1-.82.05Zm-17.07,9.86l-5.84,3.37c-.25.14-.29.35-.08.47l5.15,2.97c.2.12.57.1.82-.05l5.84-3.37c.25-.14.29-.35.08-.47l-5.15-2.97c-.2-.12-.57-.1-.82.05Zm-8.54,4.93l-5.84,3.37c-.25.14-.28.35-.08.47l5.15,2.97c.2.12.57.1.82-.05l5.84-3.37c.25-.14.28-.35.08-.47l-5.15-2.97c-.2-.12-.57-.1-.82.05Zm-8.54,4.93l-5.84,3.37c-.25.14-.28.35-.08.47l5.15,2.97c.2.12.57.1.82-.05l5.84-3.37c.25-.14.28-.35.08-.47l-5.15-2.97c-.2-.12-.57-.1-.82.05Zm38.72,3.16l5.84-3.37c.25-.14.28-.35.08-.47l-5.15-2.97c-.2-.12-.57-.1-.82.05l-5.84,3.37c-.25.14-.28.35-.08.47l5.15,2.97c.2.12.57.1.82-.05Zm79.9-71.64l-5.84,3.37c-.25.14-.28.35-.08.47l5.15,2.97c.2.12.57.1.82-.05l5.84-3.37c.25-.14.28-.35.08-.47l-5.15-2.97c-.2-.12-.57-.1-.82.05Zm-10.33,5.97l-5.84,3.37c-.25.14-.28.35-.08.47l5.15,2.97c.2.12.57.1.82-.05l5.84-3.37c.25-.14.28-.35.08-.47l-5.15-2.97c-.2-.12-.57-.1-.82.05Zm18.87-10.89l-5.84,3.37c-.25.14-.28.35-.08.47l5.15,2.97c.2.12.57.1.82-.05l5.84-3.37c.25-.14.28-.35.08-.47l-5.15-2.97c-.2-.12-.57-.1-.82.05Zm-47.56,43.61l5.84-3.37c.25-.14.28-.35.08-.47l-5.15-2.97c-.2-.12-.57-.1-.82.05l-5.84,3.37c-.25.14-.28.35-.08.47l5.15,2.97c.2.12.57.1.82-.05Zm56.92-48.59c-.2-.12-.57-.1-.82.05l-5.84,3.37c-.25.14-.28.35-.08.47l5.15,2.97c.2.12.57.1.82-.05l5.84-3.37c.25-.14.28-.35.08-.47l-5.15-2.97Zm-89.25,76.61l5.84-3.37c.25-.14.28-.35.08-.47l-5.15-2.97c-.2-.12-.57-.1-.82.05l-5.84,3.37c-.25.14-.28.35-.08.47l5.15,2.97c.2.12.57.1.82-.05Zm104.68-60.44l5.84-3.37c.25-.14.28-.35.08-.47l-5.15-2.97c-.2-.12-.57-.1-.82.05l-5.84,3.37c-.25.14-.28.35-.08.47l5.15,2.97c.2.12.57.1.82-.05Zm-16.64.25l5.84-3.37c.25-.14.28-.35.08-.47l-5.15-2.97c-.2-.12-.57-.1-.82.05l-5.84,3.37c-.25.14-.29.35-.08.47l5.15,2.97c.2.12.57.1.82-.05Zm9.31-11.75c-.2-.12-.57-.1-.82.05l-5.84,3.37c-.25.14-.28.35-.08.47l5.15,2.97c.2.12.57.1.82-.05l5.84-3.37c.25-.14.28-.35.08-.47l-5.15-2.97Zm1.8-1.04l13.25,7.65c.2.12.57.1.82-.05l5.84-3.37c.25-.14.28-.35.08-.47l-13.25-7.65c-.2-.12-.57-.1-.82.05l-5.84,3.37c-.25.14-.28.35-.08.47Zm-19.69,10.94l-5.84,3.37c-.25.14-.28.35-.08.47l5.15,2.97c.2.12.57.1.82-.05l5.84-3.37c.25-.14.28-.35.08-.47l-5.15-2.97c-.2-.12-.57-.1-.82.05Zm-64.25,37.09l-5.84,3.37c-.25.14-.28.35-.08.47l5.15,2.97c.2.12.57.1.82-.05l5.84-3.37c.25-.14.28-.35.08-.47l-5.15-2.97c-.2-.12-.57-.1-.82.05Zm80.12-30.53c.2.12.57.1.82-.05l5.84-3.37c.25-.14.28-.35.08-.47l-5.15-2.97c-.2-.12-.57-.1-.82.05l-5.84,3.37c-.25.14-.28.35-.08.47l5.15,2.97Zm-71.58,25.6l-5.84,3.37c-.25.14-.28.35-.08.47l5.15,2.97c.2.12.57.1.82-.05l5.84-3.37c.25-.14.28-.35.08-.47l-5.15-2.97c-.2-.12-.57-.1-.82.05Zm-67.25,54.56c.2.12.57.1.82-.05l5.84-3.37c.25-.14.28-.35.08-.47l-5.15-2.97c-.2-.12-.57-.1-.82.05l-5.84,3.37c-.25.14-.28.35-.08.47l5.15,2.97Zm-9.58-10.2l-5.84,3.37c-.25.14-.28.35-.08.47l5.15,2.97c.2.12.57.1.82-.05l5.84-3.37c.25-.14.28-.35.08-.47l-5.15-2.97c-.2-.12-.57-.1-.82.05Zm18.93,5.22l5.84-3.37c.25-.14.29-.35.08-.47l-5.15-2.97c-.2-.12-.57-.1-.82.05l-5.84,3.37c-.25.14-.28.35-.08.47l5.15,2.97c.2.12.57.1.82-.05Zm8.54-4.93l5.84-3.37c.25-.14.28-.35.08-.47l-5.15-2.97c-.2-.12-.57-.1-.82.05l-5.84,3.37c-.25.14-.28.35-.08.47l5.15,2.97c.2.12.57.1.82-.05Zm8.54-4.93l5.84-3.37c.25-.14.28-.35.08-.47l-5.15-2.97c-.2-.12-.57-.1-.82.05l-5.84,3.37c-.25.14-.28.35-.08.47l5.15,2.97c.2.12.57.1.82-.05Zm-27.47-.3l-5.84,3.37c-.25.14-.28.35-.08.47l5.15,2.97c.2.12.57.1.82-.05l5.84-3.37c.25-.14.28-.35.08-.47l-5.15-2.97c-.2-.12-.57-.1-.82.05Zm8.54-4.93l-5.84,3.37c-.25.14-.28.35-.08.47l5.15,2.97c.2.12.57.1.82-.05l5.84-3.37c.25-.14.28-.35.08-.47l-5.15-2.97c-.2-.12-.57-.1-.82.05Zm34.15-19.71l-5.84,3.37c-.25.14-.28.35-.08.47l5.15,2.97c.2.12.57.1.82-.05l5.84-3.37c.25-.14.28-.35.08-.47l-5.15-2.97c-.2-.12-.57-.1-.82.05Zm-8.54,4.93l-5.84,3.37c-.25.14-.28.35-.08.47l5.15,2.97c.2.12.57.1.82-.05l5.84-3.37c.25-.14.28-.35.08-.47l-5.15-2.97c-.2-.12-.57-.1-.82.05Zm17.07-9.86l-5.84,3.37c-.25.14-.28.35-.08.47l5.15,2.98c.2.12.57.1.82-.05l5.84-3.37c.25-.14.28-.35.08-.47l-5.15-2.97c-.2-.12-.57-.1-.82.05Zm-34.15,19.71l-5.84,3.37c-.25.14-.29.35-.08.47l5.15,2.97c.2.12.57.1.82-.05l5.84-3.37c.25-.14.28-.35.08-.47l-5.15-2.97c-.2-.12-.57-.1-.82.05Zm8.54-4.93l-5.84,3.37c-.25.14-.28.35-.08.47l5.15,2.97c.2.12.57.1.82-.05l5.84-3.37c.25-.14.28-.35.08-.47l-5.15-2.97c-.2-.12-.57-.1-.82.05Zm-11.15,31.95l5.84-3.37c.25-.14.28-.35.08-.47l-5.15-2.97c-.2-.12-.57-.1-.82.05l-5.84,3.37c-.25.14-.28.35-.08.47l5.15,2.97c.2.12.57.1.82-.05Zm-45.34-2.31l-5.15-2.97c-.2-.12-.57-.1-.82.05l-5.84,3.37c-.25.14-.28.35-.08.47l5.15,2.97c.2.12.57.1.82-.05l5.84-3.37c.25-.14.28-.35.08-.47Zm11.25,2.86l-5.15-2.97c-.2-.12-.57-.1-.82.05l-8.99,5.19c-.25.14-.28.35-.08.47l5.15,2.97c.2.12.57.1.82-.05l8.99-5.19c.25-.14.28-.35.08-.47Zm-18.83-8.8l-5.15-2.97c-.2-.12-.57-.1-.82.05l-7.19,4.15c-.25.14-.28.35-.08.47l5.15,2.97c.2.12.57.1.82-.05l7.19-4.15c.25-.14.28-.35.08-.47Zm5.51-3.18c.2.12.57.1.82-.05l5.84-3.37c.25-.14.28-.35.08-.47l-5.15-2.97c-.2-.12-.57-.1-.82.05l-5.84,3.37c-.25.14-.28.35-.08.47l5.15,2.97Zm23.67,15.36l-5.15-2.97c-.2-.12-.57-.1-.82.05l-11.23,6.48c-.25.14-.28.35-.08.47l5.15,2.97c.2.12.57.1.82-.05l11.23-6.49c.25-.14.28-.35.08-.47Zm4.06,7.01l-5.15-2.97c-.2-.12-.57-.1-.82.05l-7.19,4.15c-.25.14-.28.35-.08.47l5.15,2.97c.2.12.57.1.82-.05l7.19-4.15c.25-.14.28-.35.08-.47Zm35.74-59.02c.2.12.57.1.82-.05l5.84-3.37c.25-.14.29-.35.08-.47l-5.15-2.97c-.2-.12-.57-.1-.82.05l-5.84,3.37c-.25.14-.28.35-.08.47l5.15,2.97Zm-17.07,9.86c.2.12.57.1.82-.05l5.84-3.37c.25-.14.28-.35.08-.47l-5.15-2.97c-.2-.12-.57-.1-.82.05l-5.84,3.37c-.25.14-.28.35-.08.47l5.15,2.97Zm-37.86,21.86c.2.12.57.1.82-.05l5.84-3.37c.25-.14.28-.35.08-.47l-5.15-2.97c-.2-.12-.57-.1-.82.05l-5.84,3.37c-.25.14-.28.35-.08.47l5.15,2.97Zm46.4-26.79c.2.12.57.1.82-.05l5.84-3.37c.25-.14.28-.35.08-.47l-5.15-2.97c-.2-.12-.57-.1-.82.05l-5.84,3.37c-.25.14-.28.35-.08.47l5.15,2.97Zm-17.07,9.86c.2.12.57.1.82-.05l5.84-3.37c.25-.14.28-.35.08-.47l-5.15-2.97c-.2-.12-.57-.1-.82.05l-5.84,3.37c-.25.14-.28.35-.08.47l5.15,2.97Zm-5.38,44.9c-.2-.12-.57-.1-.82.05l-8.99,5.19c-.25.14-.28.35-.08.47l5.15,2.97c.2.12.57.1.82-.05l8.99-5.19c.25-.14.28-.35.08-.47l-5.15-2.97Zm-6.87-37.83c.2.12.57.1.82-.05l5.84-3.37c.25-.14.28-.35.08-.47l-5.15-2.97c-.2-.12-.57-.1-.82.05l-5.84,3.37c-.25.14-.28.35-.08.47l5.15,2.97Zm-8.54,4.93c.2.12.57.1.82-.05l5.84-3.37c.25-.14.28-.35.08-.47l-5.15-2.97c-.2-.12-.57-.1-.82.05l-5.84,3.37c-.25.14-.28.35-.08.47l5.15,2.97Zm173.55-58.41c-.2-.12-.57-.1-.82.05l-14.38,8.3c-.25.14-.28.35-.08.47l5.15,2.97c.2.12.57.1.82-.05l14.38-8.3c.25-.14.28-.35.08-.47l-5.15-2.97Zm-18.87,10.89c-.2-.12-.57-.1-.82.05l-5.84,3.37c-.25.14-.28.35-.08.47l5.15,2.97c.2.12.57.1.82-.05l5.84-3.37c.25-.14.28-.35.08-.47l-5.15-2.97Zm-115.8,63.88l5.84-3.37c.25-.14.28-.35.08-.47l-5.15-2.97c-.2-.12-.57-.1-.82.05l-5.84,3.37c-.25.14-.28.35-.08.47l5.15,2.97c.2.12.57.1.82-.05Zm98.73-54.02c-.2-.12-.57-.1-.82.05l-5.84,3.37c-.25.14-.28.35-.08.47l5.15,2.97c.2.12.57.1.82-.05l5.84-3.37c.25-.14.28-.35.08-.47l-5.15-2.97Zm44.48-25.68c-.2-.12-.57-.1-.82.05l-5.84,3.37c-.25.14-.28.35-.08.47l5.15,2.97c.2.12.57.1.82-.05l5.84-3.37c.25-.14.28-.35.08-.47l-5.15-2.97Zm13.69-1.95l-13.26-7.65c-.2-.12-.57-.1-.82.05l-5.84,3.37c-.25.14-.28.35-.08.47l13.25,7.65c.2.12.57.1.82-.05l5.84-3.37c.25-.14.28-.35.08-.47Zm-90.07,46.05c-.2-.12-.57-.1-.82.05l-7.19,4.15c-.25.14-.28.35-.08.47l5.15,2.97c.2.12.57.1.82-.05l7.19-4.15c.25-.14.28-.36.08-.47l-5.15-2.97Zm21.57-12.45c-.2-.12-.57-.1-.82.05l-8.99,5.19c-.25.14-.28.35-.08.47l5.15,2.97c.2.12.57.1.82-.05l8.99-5.19c.25-.14.28-.35.08-.47l-5.15-2.97Zm-41.33,23.86c-.2-.12-.57-.1-.82.05l-48.07,27.76c-.25.14-.29.35-.08.47l5.15,2.97c.2.12.57.1.82-.05l48.07-27.76c.25-.14.28-.35.08-.47l-5.15-2.97Zm-50.77,29.31c-.2-.12-.57-.1-.82.05l-7.19,4.15c-.25.14-.28.35-.08.47l5.15,2.97c.2.12.57.1.82-.05l7.19-4.15c.25-.14.28-.35.08-.47l-5.15-2.97Zm60.65-35.02c-.2-.12-.57-.1-.82.05l-7.19,4.15c-.25.14-.29.35-.08.47l5.15,2.97c.2.12.57.1.82-.05l7.19-4.15c.25-.14.28-.35.08-.47l-5.15-2.97Zm-70.54,40.73c-.2-.12-.57-.1-.82.05l-7.19,4.15c-.25.14-.28.35-.08.47l5.15,2.97c.2.12.57.1.82-.05l7.19-4.15c.25-.14.28-.35.08-.47l-5.15-2.97Zm90.31-52.14c-.2-.12-.57-.1-.82.05l-7.19,4.15c-.25.14-.28.35-.08.47l5.15,2.97c.2.12.57.1.82-.05l7.19-4.15c.25-.14.28-.35.08-.47l-5.15-2.97Zm30.55-17.64c-.2-.12-.57-.1-.82.05l-5.84,3.37c-.25.14-.28.35-.08.47l5.15,2.97c.2.12.57.1.82-.05l5.84-3.37c.25-.14.28-.35.08-.47l-5.15-2.97Zm18.53-13.68l5.84-3.37c.25-.14.29-.35.08-.47l-5.15-2.97c-.2-.12-.57-.1-.82.05l-5.84,3.37c-.25.14-.28.35-.08.47l5.15,2.97c.2.12.57.1.82-.05Zm-35.08,1.54l5.84-3.37c.25-.14.28-.35.08-.47l-5.15-2.97c-.2-.12-.57-.1-.82.05l-5.84,3.37c-.25.14-.28.35-.08.47l5.15,2.97c.2.12.57.1.82-.05Zm-22.43,31.66l17.07-9.86c.25-.14.28-.35.08-.47l-5.15-2.97c-.2-.12-.57-.1-.82.05l-17.07,9.86c-.25.14-.28.35-.08.47l5.15,2.97c.2.12.57.1.82-.05Zm48.16-28.23c.2.12.57.1.82-.05l5.84-3.37c.25-.14.28-.35.08-.47l-5.15-2.97c-.2-.12-.57-.1-.82.05l-5.84,3.37c-.25.14-.28.35-.08.47l5.15,2.97Zm-7.29-4.72l5.84-3.37c.25-.14.28-.35.08-.47l-5.15-2.97c-.2-.12-.57-.1-.82.05l-5.84,3.37c-.25.14-.28.35-.08.47l5.15,2.97c.2.12.57.1.82-.05Zm-49.41,37.88l5.84-3.37c.25-.14.28-.35.08-.47l-5.15-2.97c-.2-.12-.57-.1-.82.05l-5.84,3.37c-.25.14-.28.35-.08.47l5.15,2.97c.2.12.57.1.82-.05Zm37.82-22.26c.2.12.57.1.82-.05l5.84-3.37c.25-.14.28-.35.08-.47l-5.15-2.97c-.2-.12-.57-.1-.82.05l-5.84,3.37c-.25.14-.28.35-.08.47l5.15,2.97Zm-80.5,46.9l5.84-3.37c.25-.14.28-.35.08-.47l-5.15-2.97c-.2-.12-.57-.1-.82.05l-5.84,3.37c-.25.14-.28.35-.08.47l5.15,2.97c.2.12.57.1.82-.05Zm8.54-4.93l5.84-3.37c.25-.14.28-.35.08-.47l-5.15-2.97c-.2-.12-.57-.1-.82.05l-5.84,3.37c-.25.14-.28.35-.08.47l5.15,2.97c.2.12.57.1.82-.05Zm-17.07,9.86l5.84-3.37c.25-.14.28-.35.08-.47l-5.15-2.97c-.2-.12-.57-.1-.82.05l-5.84,3.37c-.25.14-.28.35-.08.47l5.15,2.98c.2.12.57.1.82-.05Zm34.15-19.71l5.84-3.37c.25-.14.28-.36.08-.47l-5.15-2.97c-.2-.12-.57-.1-.82.05l-5.84,3.37c-.25.14-.28.35-.08.47l5.15,2.98c.2.12.57.1.82-.05Zm-8.54,4.93l5.84-3.37c.25-.14.28-.35.08-.47l-5.15-2.97c-.2-.12-.57-.1-.82.05l-5.84,3.37c-.25.14-.28.35-.08.47l5.15,2.97c.2.12.57.1.82-.05Zm17.07-9.86l5.84-3.37c.25-.14.28-.35.08-.47l-5.15-2.97c-.2-.12-.57-.1-.82.05l-5.84,3.37c-.25.14-.28.35-.08.47l5.15,2.97c.2.12.57.1.82-.05Zm47.17-68.22c.2.12.57.1.82-.05l5.84-3.37c.25-.14.28-.35.08-.47l-1.37-.79c-.2-.12-.57-.1-.82.05l-5.84,3.37c-.25.14-.28.35-.08.47l1.37.79Zm-42.59,26.77c.2.12.57.1.82-.05l5.84-3.37c.25-.14.28-.35.08-.47l-5.15-2.97c-.2-.12-.57-.1-.82.05l-5.84,3.37c-.25.14-.28.35-.08.47l5.15,2.97Zm17.07-9.86c.2.12.57.1.82-.05l5.84-3.37c.25-.14.28-.35.08-.47l-5.15-2.97c-.2-.12-.57-.1-.82.05l-5.84,3.37c-.25.14-.28.35-.08.47l5.15,2.97Zm-27.5,15.88c.2.12.57.1.82-.05l5.84-3.37c.25-.14.28-.35.08-.47l-5.15-2.97c-.2-.12-.57-.1-.82.05l-5.84,3.37c-.25.14-.28.35-.08.47l5.15,2.97Zm18.96-10.95c.2.12.57.1.82-.05l5.84-3.37c.25-.14.28-.35.08-.47l-5.15-2.97c-.2-.12-.57-.1-.82.05l-5.84,3.37c-.25.14-.28.35-.08.47l5.15,2.97Zm-36.03,20.8c.2.12.57.1.82-.05l5.84-3.37c.25-.14.28-.35.08-.47l-5.15-2.97c-.2-.12-.57-.1-.82.05l-5.84,3.37c-.25.14-.28.35-.08.47l5.15,2.97Zm8.54-4.93c.2.12.57.1.82-.05l5.84-3.37c.25-.14.28-.35.08-.47l-5.15-2.97c-.2-.12-.57-.1-.82.05l-5.84,3.37c-.25.14-.28.35-.08.47l5.15,2.97Zm44.48-27.86c.2.12.57.1.82-.05l5.84-3.37c.25-.14.28-.35.08-.47l-1.37-.79c-.2-.12-.57-.1-.82.05l-5.84,3.37c-.25.14-.28.35-.08.47l1.37.79Zm25.61-14.79c.2.12.57.1.82-.05l5.84-3.37c.25-.14.28-.35.08-.47l-1.37-.79c-.2-.12-.57-.1-.82.05l-5.84,3.37c-.25.14-.28.35-.08.47l1.37.79Zm10.82,6.25c.2.12.57.1.82-.05l5.84-3.37c.25-.14.28-.35.08-.47l-5.15-2.97c-.2-.12-.57-.1-.82.05l-5.84,3.37c-.25.14-.28.35-.08.47l5.15,2.97Zm16.59,18.92l5.84-3.37c.25-.14.29-.35.08-.47l-5.15-2.97c-.2-.12-.57-.1-.82.05l-5.84,3.37c-.25.14-.28.35-.08.47l5.15,2.98c.2.12.57.1.82-.05Zm-44.48-15.31c.2.12.57.1.82-.05l5.84-3.37c.25-.14.28-.35.08-.47l-1.37-.79c-.2-.12-.57-.1-.82.05l-5.84,3.37c-.25.14-.28.35-.08.47l1.37.79Zm-70.09,42.65c.2.12.57.1.82-.05l5.84-3.37c.25-.14.29-.35.08-.47l-5.15-2.97c-.2-.12-.57-.1-.82.05l-5.84,3.37c-.25.14-.28.35-.08.47l5.15,2.97Z"/>
      </g>
      <polygon class="cls-13" points="218.97 325.24 220.17 325.93 251.98 344.29 308.55 311.63 309.73 310.96 276.72 291.91 218.97 325.24"/>
      <polygon class="cls-5" points="220.17 325.93 251.98 344.29 308.55 311.63 276.72 293.27 220.17 325.93"/>
      <path class="cls-11" d="m55.86,319.29c.48.28,1.03.51,1.61.69-.58-.17-1.13-.4-1.61-.68-.17-.1-.34-.21-.5-.33.16.11.33.22.5.31Z"/>
      <path class="cls-11" d="m65.03,319.79s.05-.05.08-.07c-.02.02-.05.04-.06.06t-.02.01Z"/>
    </g>
  </g>
  <g id="Windows">
    <g id="Video">
      <g>
        <path class="cls-11" d="m152.75,129.07c.55.32.88.99.88,1.95v38.78c0,1.92-1.35,4.26-3.02,5.23l-56.23,32.46c-.83.48-1.59.53-2.13.21-.55-.32-5.11-2.96-5.66-3.27-.55-.31-.89-.99-.89-1.96v-38.78c0-1.92,1.35-4.26,3.02-5.23l56.23-32.46c.84-.48,1.6-.53,2.14-.2.54.32,5.11,2.95,5.66,3.27Z"/>
        <g class="cls-4">
          <path class="cls-1" d="m153.63,131.02v38.78c0,1.92-1.35,4.26-3.02,5.23l-19.62,11.33-44.41-25.64c.55-.95,1.3-1.77,2.13-2.25l56.23-32.46c.84-.48,1.6-.53,2.14-.2.54.32,5.11,2.95,5.66,3.27.55.32.88.99.88,1.95Z"/>
        </g>
        <path class="cls-8" d="m130.99,186.36l-36.61,21.13c-.83.48-1.59.53-2.13.21-.55-.32-5.11-2.96-5.66-3.27-.55-.31-.89-.99-.89-1.96v-38.78c0-.96.34-2.03.88-2.97l44.41,25.64Z"/>
        <path class="cls-11" d="m94.39,161.74l56.23-32.46c1.67-.96,3.02-.18,3.02,1.74v38.78c0,1.92-1.35,4.26-3.02,5.23l-56.23,32.46c-1.67.96-3.02.18-3.02-1.74v-38.78c0-1.92,1.35-4.26,3.02-5.23Z"/>
      </g>
      <path class="cls-3" d="m126.77,168.12l-10.64,13.75c-2.01,2.58-3.63,2.81-3.63.49v-17.16c0-2.33,1.05-4.07,2.33-3.89l13.25,1.8c1.29.17.71,2.43-1.31,5.02Z"/>
    </g>
    <g id="Cart">
      <g>
        <path class="cls-11" d="m128.54,210.23c.55.32.88.99.88,1.95v38.78c0,1.92-1.35,4.26-3.02,5.23l-32.02,18.37c-.83.48-1.59.53-2.13.21-.55-.32-5.11-2.96-5.66-3.27-.55-.31-.89-.99-.89-1.96v-38.78c0-1.92,1.35-4.26,3.02-5.23l32.02-18.37c.84-.48,1.6-.53,2.14-.2.54.32,5.11,2.95,5.66,3.27Z"/>
        <g class="cls-4">
          <path class="cls-1" d="m129.43,212.18v38.78c0,1.92-1.35,4.26-3.02,5.23h0l-39.82-28.4c.55-.95,1.3-1.77,2.13-2.25l32.02-18.37c.84-.48,1.6-.53,2.14-.2.54.32,5.11,2.95,5.66,3.27.55.32.88.99.88,1.95Z"/>
        </g>
        <path class="cls-8" d="m126.41,256.19l-32.02,18.37c-.83.48-1.59.53-2.13.21-.55-.32-5.11-2.96-5.66-3.27-.55-.31-.89-.99-.89-1.96v-38.78c0-.96.34-2.03.88-2.97l39.82,28.4Z"/>
        <path class="cls-11" d="m94.39,228.81l32.02-18.37c1.67-.96,3.02-.18,3.02,1.74v38.78c0,1.92-1.35,4.26-3.02,5.23l-32.02,18.37c-1.67.96-3.02.18-3.02-1.74v-38.78c0-1.92,1.35-4.26,3.02-5.23Z"/>
      </g>
      <g>
        <path class="cls-3" d="m109.83,240.85c-.59,0-1.14-.14-1.64-.43-1.34-.77-2.11-2.51-2.11-4.76,0-4.06,2.49-8.8,5.56-10.57,1.45-.84,2.88-.94,4.02-.28,1.34.77,2.11,2.51,2.11,4.76,0,4.06-2.49,8.8-5.56,10.57-.82.47-1.63.71-2.38.71Zm4.19-15.33c-.56,0-1.17.19-1.81.55-2.75,1.59-4.99,5.89-4.99,9.58,0,1.83.56,3.21,1.54,3.77.78.45,1.8.35,2.88-.28,2.75-1.59,4.99-5.89,4.99-9.58,0-1.83-.56-3.21-1.54-3.77-.32-.18-.68-.28-1.07-.28Z"/>
        <path class="cls-3" d="m101.57,239.48c-.2,0-.39-.1-.49-.28-.16-.27-.06-.62.21-.77l5.08-2.93c.27-.16.62-.06.77.21.16.27.06.62-.21.77l-5.08,2.93c-.09.05-.19.08-.28.08Z"/>
        <path class="cls-3" d="m104.69,252.81c-.08,0-.15-.02-.23-.05-.16-.07-.29-.22-.33-.39l-3.69-15.77c-.02-.08-.09-.33-.24-.36l-1.43-.27c-.31-.06-.51-.35-.45-.66.06-.31.35-.51.66-.45l1.43.27c.56.11.98.55,1.13,1.21l3.51,15.03,12.92-7.46c.38-.22.74-.82.85-1.4l2.48-13.45c.09-.48-.02-.74-.09-.78,0,0-.08,0-.19.06l-3.55,2.05c-.27.16-.62.06-.77-.21s-.06-.62.21-.77l3.55-2.05c.5-.29,1.01-.29,1.42,0,.5.35.7,1.07.55,1.91l-2.48,13.45c-.17.92-.73,1.79-1.4,2.18l-13.58,7.84c-.09.05-.19.08-.28.08Z"/>
        <path class="cls-3" d="m103.98,257.54c-.25,0-.5-.06-.72-.19-.55-.32-.87-1-.87-1.86,0-1.45.87-3.08,1.98-3.72l13.62-7.86c.27-.16.62-.06.77.21.16.27.06.62-.21.78l-13.62,7.86c-.76.44-1.41,1.7-1.41,2.74,0,.52.16.79.3.88.17.1.41-.01.54-.09l14.58-8.42c.27-.16.62-.06.77.21.16.27.06.62-.21.77l-14.58,8.42c-.32.19-.65.28-.96.28Z"/>
        <g>
          <path class="cls-3" d="m105.89,263.11c-.25,0-.5-.06-.72-.19-.55-.32-.87-1-.87-1.87,0-1.46.87-3.11,1.99-3.75.59-.34,1.19-.37,1.68-.09.56.32.87,1,.87,1.87,0,1.46-.87,3.11-1.99,3.75-.33.19-.65.28-.96.28Zm1.35-4.96c-.14,0-.3.07-.39.13-.77.44-1.42,1.71-1.42,2.77,0,.52.16.8.31.89.17.1.42-.01.55-.09.77-.44,1.42-1.71,1.42-2.77,0-.52-.16-.8-.31-.89-.05-.03-.1-.04-.16-.04Z"/>
          <path class="cls-3" d="m115.47,257.58c-.25,0-.5-.06-.72-.19-.55-.32-.87-1-.87-1.87,0-1.46.87-3.11,1.99-3.75.59-.34,1.19-.37,1.68-.09.56.32.87,1,.87,1.87,0,1.46-.87,3.11-1.99,3.75-.33.19-.65.28-.96.28Zm1.35-4.96c-.14,0-.3.07-.39.13-.77.45-1.42,1.71-1.42,2.77,0,.52.16.8.31.89.17.1.42-.01.55-.09.77-.44,1.42-1.71,1.42-2.77,0-.52-.16-.8-.31-.89-.05-.03-.1-.04-.16-.04Z"/>
        </g>
        <path class="cls-3" d="m109.94,258.69c-.2,0-.39-.1-.49-.28-.16-.27-.06-.62.21-.78l2.84-1.64c.27-.16.62-.06.78.21.16.27.06.62-.21.78l-2.84,1.64c-.09.05-.19.08-.28.08Z"/>
        <path class="cls-3" d="m111.09,236.39c-.14,0-.28-.05-.38-.15l-1.7-1.56c-.23-.21-.25-.57-.03-.8.21-.23.57-.25.8-.03l1.12,1.03,3.04-6.66c.13-.28.46-.41.75-.28.28.13.41.47.28.75l-3.36,7.37c-.08.16-.23.28-.4.32-.04,0-.08.01-.11.01Z"/>
      </g>
    </g>
    <g id="Window">
      <g id="Window-2" data-name="Window">
        <path class="cls-3" d="m255.42,73.28c-.01-.13-.03-.25-.07-.37.01-.03,0-.05-.01-.08-.01-.13-.05-.25-.09-.36-.05-.19-.13-.36-.24-.52-.03-.08-.08-.15-.13-.21-.04-.05-.07-.11-.12-.15-.08-.11-.16-.18-.26-.26,0,0-.01-.01-.03-.03-.11-.08-.23-.15-.34-.2-.73-.34-1.67-.25-2.71.34l-80.47,46.11c-2.22,1.28-4.03,4.42-4.03,6.98v147.29s0,.02,0,.03v.88c0,1.09.62,1.98,1.46,2.44.06.04.11.06.17.1.07.04.13.08.21.12.11.05.22.09.34.12.17.04.34.07.52.07.41.01.87-.12,1.34-.38l.11-.06s0,0,0,0l3.84-2.22,76.51-43.89c2.22-1.28,4.03-4.4,4.03-6.98V73.78c0-.17-.01-.34-.03-.5Z"/>
        <g>
          <path class="cls-11" d="m254.13,71.11c-.73-.34-1.67-.25-2.71.34l-80.47,46.11c-2.22,1.28-4.03,4.42-4.03,6.98v13.18l-5.15-3.02v-13.08c0-2.57,1.8-5.69,4.02-6.97l80.48-46.11c1.15-.67,2.18-.69,2.92-.24.73.44,4.07,2.35,4.93,2.8Z"/>
          <path class="cls-11" d="m255.44,73.76c-.02-2.55-1.81-3.57-4.03-2.3l-80.47,46.11c-2.23,1.29-4.03,4.41-4.03,6.98v13.18s88.52-50.75,88.52-50.75v-13.23Z"/>
          <g class="cls-4">
            <path class="cls-1" d="m251.41,71.46l-80.46,46.11c-1.1.65-2.12,1.74-2.84,2.99l-5.12-2.97c.72-1.24,1.71-2.32,2.8-2.94l80.47-46.11c1.15-.67,2.18-.68,2.93-.24.72.44,4.07,2.34,4.92,2.8-.71-.34-1.66-.24-2.7.35Z"/>
          </g>
          <path class="cls-8" d="m161.76,134.73v-13.1c0-1.31.48-2.75,1.23-4.03l5.13,2.95c-.75,1.27-1.2,2.7-1.2,4.01v13.18l-5.16-3.01Z"/>
        </g>
        <g>
          <path class="cls-3" d="m231.61,88.7c-1.26.73-2.28,2.88-2.28,4.82s1.02,2.92,2.28,2.19c1.26-.73,2.28-2.88,2.28-4.82s-1.02-2.92-2.28-2.19Z"/>
          <path class="cls-3" d="m239.81,83.95c-1.26.73-2.28,2.88-2.28,4.82s1.02,2.92,2.28,2.19c1.26-.73,2.28-2.88,2.28-4.82s-1.02-2.92-2.28-2.19Z"/>
          <path class="cls-3" d="m248.01,79.21c-1.26.73-2.28,2.88-2.28,4.82s1.02,2.92,2.28,2.19c1.26-.73,2.28-2.88,2.28-4.82s-1.02-2.92-2.28-2.19Z"/>
        </g>
        <path class="cls-7" d="m168.38,275.2l-.22-.12-4.25-2.45c-1.15-.65-1.92-1.82-2.1-3.12-.03-.2-.04-.39-.04-.59v-134.2l5.15,3.02v135.02c0,1.01.54,1.87,1.29,2.33.12.07.18.11.18.11Z"/>
      </g>
      <g>
        <path class="cls-6" d="m194.28,135.25c0,.1,0,.24-.01.41,0,.17,0,.35,0,.54s0,.36,0,.54c0,.17,0,.31.01.4,0,.17.03.32.07.46.04.14.09.24.16.32.07.08.17.12.28.13.11,0,.25-.04.42-.13.16-.09.3-.2.41-.33.11-.12.2-.25.26-.37.07-.13.12-.25.16-.38.04-.13.06-.24.08-.34.02-.13.05-.23.08-.3.03-.07.09-.12.17-.17l.96-.55s.08-.02.11,0c.03.03.05.08.05.15,0,.38-.07.78-.18,1.18-.12.4-.28.79-.48,1.16-.21.37-.44.7-.72,1.01-.28.3-.57.55-.89.74-.35.2-.66.3-.94.3-.27,0-.51-.09-.7-.25-.19-.17-.34-.4-.45-.71-.1-.31-.16-.67-.18-1.07,0-.3-.01-.63-.01-.98s0-.69.01-1.02c.01-.42.07-.84.18-1.28.11-.43.26-.84.45-1.23.19-.39.43-.74.71-1.06s.59-.58.94-.79c.32-.19.62-.28.89-.3.27-.01.51.05.72.17.2.13.37.33.48.6.12.27.18.59.18.97,0,.07-.02.13-.05.2-.03.07-.07.11-.11.14l-.96.55c-.08.05-.14.06-.17.02-.03-.03-.06-.1-.08-.21-.02-.08-.05-.16-.08-.24-.04-.08-.09-.15-.16-.2-.07-.05-.16-.07-.26-.07-.11,0-.24.05-.41.15-.17.1-.3.21-.42.35-.11.14-.2.29-.28.45-.07.16-.13.33-.16.51-.03.18-.06.36-.07.53Z"/>
        <path class="cls-6" d="m202.04,135.35c0,.08-.02.17-.06.25-.04.08-.09.14-.14.17l-.92.53c-.05.03-.1.03-.14,0-.04-.04-.06-.1-.06-.18v-2.84c0-.32-.05-.55-.15-.69-.1-.14-.26-.14-.48-.01-.22.13-.38.32-.48.57-.1.25-.15.54-.15.86v2.84c0,.08-.02.17-.06.25-.04.08-.08.14-.14.17l-.92.53c-.05.03-.1.03-.14,0-.04-.04-.06-.1-.06-.18v-7.38c0-.08.02-.16.06-.25.04-.08.09-.14.14-.17l.92-.53c.05-.03.1-.03.14,0,.04.04.06.1.06.18v2.4c.08-.21.21-.43.39-.68.17-.25.38-.44.61-.57.23-.13.45-.21.64-.22.19,0,.36.05.5.18.14.13.25.33.32.61.08.28.12.64.12,1.08v3.09Z"/>
        <path class="cls-6" d="m203.99,132.24c0,.17.02.3.06.39.04.09.09.15.16.18.06.03.13.04.21.02.08-.02.15-.05.23-.09.15-.08.26-.17.35-.27.09-.09.16-.2.22-.32.05-.1.09-.16.12-.2s.07-.07.12-.1l.95-.55c.11-.06.16-.01.16.15,0,.09-.04.25-.11.47-.07.23-.19.48-.34.76-.15.28-.35.56-.6.84s-.53.52-.87.71c-.32.18-.6.28-.84.28-.25,0-.45-.08-.62-.24-.17-.16-.3-.41-.38-.74-.09-.32-.13-.72-.13-1.2,0-.43.04-.86.13-1.28.08-.42.21-.81.38-1.18.17-.37.37-.7.62-.99.25-.3.53-.54.84-.72.35-.21.66-.29.91-.25.25.04.46.16.61.36.16.2.27.46.34.79.07.32.11.66.11,1.02v.32c0,.08-.02.16-.06.25-.04.08-.09.14-.14.17l-2.43,1.4Zm.66-2.54c-.21.12-.36.3-.47.55-.11.25-.17.5-.19.74l1.31-.76c-.02-.22-.08-.39-.19-.52-.11-.13-.26-.13-.47-.01Z"/>
        <path class="cls-6" d="m208.44,128.63c0,.12-.01.25-.01.4s0,.28.01.39c.01.26.08.44.2.54.12.1.27.09.47-.02.16-.09.28-.2.37-.32.09-.12.15-.26.21-.42.02-.07.05-.14.08-.21.03-.06.07-.11.13-.14l.96-.55c.05-.03.1-.03.14,0,.04.04.06.1.05.18,0,.12-.04.32-.1.58s-.16.56-.31.87c-.15.31-.34.62-.59.94-.25.31-.56.58-.95.8-.27.16-.53.25-.76.26-.24.02-.44-.04-.62-.16-.18-.12-.32-.31-.42-.57-.1-.26-.16-.58-.17-.98,0-.11,0-.26,0-.45s0-.34,0-.45c0-.4.07-.79.17-1.17.11-.38.25-.73.42-1.06.18-.33.38-.62.62-.88.24-.26.49-.46.76-.62.38-.22.7-.32.95-.29.25.02.45.11.59.25.15.14.25.32.31.51s.09.36.1.47c0,.08-.01.16-.05.25-.04.08-.09.14-.14.17l-.96.55c-.05.03-.1.03-.13,0-.03-.03-.06-.06-.08-.11-.05-.1-.12-.16-.21-.18-.08-.02-.21.01-.37.11-.2.11-.35.29-.47.52-.12.23-.18.49-.2.76Z"/>
        <path class="cls-6" d="m212.99,125.29l.96-2.18c.02-.05.06-.12.11-.19.05-.07.11-.13.18-.17l1.07-.62s.09-.03.12,0c.03.03.05.09.05.16,0,.04,0,.07-.01.1,0,.03-.03.09-.07.17l-1.3,2.98,1.53,1.76s.05.06.06.08c0,.02.01.05.01.09,0,.07-.02.15-.05.22-.04.07-.08.12-.12.15l-1.09.63c-.07.04-.13.06-.18.05-.05,0-.09-.03-.12-.07l-1.16-1.34v1.9c0,.08-.02.17-.06.25-.04.08-.09.14-.14.17l-.92.53c-.05.03-.1.03-.14,0-.04-.04-.06-.1-.06-.18v-7.38c0-.08.02-.16.06-.25.04-.08.09-.14.14-.17l.92-.53c.05-.03.1-.03.14,0,.04.04.06.1.06.18v3.64Z"/>
        <path class="cls-6" d="m221.42,121.11c0,.11,0,.25,0,.43s0,.32,0,.44c0,.37-.06.73-.16,1.1-.1.37-.23.72-.4,1.06-.17.33-.38.64-.62.91-.24.27-.51.5-.81.67-.3.17-.57.26-.81.26-.24,0-.45-.06-.62-.2-.17-.14-.3-.34-.4-.59-.1-.26-.15-.57-.16-.92,0-.11,0-.25,0-.43s0-.32,0-.44c0-.36.06-.73.15-1.1.1-.37.23-.73.41-1.06.17-.34.38-.64.62-.92.24-.28.51-.5.81-.67.3-.17.57-.26.81-.26s.45.07.62.2c.17.14.31.33.4.6.09.26.15.57.16.92Zm-2.66,2.34c.01.28.08.46.2.55.12.09.28.08.47-.03.19-.11.35-.28.47-.51.12-.23.19-.49.2-.78,0-.12.01-.25.01-.39s0-.27-.01-.37c-.01-.28-.08-.46-.2-.55-.12-.09-.28-.08-.47.03-.2.11-.35.28-.47.51-.12.23-.19.49-.2.79,0,.12-.01.25-.01.39s0,.27.01.38Z"/>
        <path class="cls-6" d="m222.07,118.54c0-.08.02-.17.06-.25.04-.08.08-.14.14-.17l.92-.53c.05-.03.1-.03.14,0,.04.04.06.1.06.18v2.85c0,.32.05.55.14.7.09.14.25.15.46.03.21-.12.37-.31.46-.55.09-.25.13-.53.13-.85v-2.85c0-.08.02-.16.06-.25.04-.08.09-.14.14-.17l.92-.53c.05-.03.1-.03.14,0,.04.04.06.1.06.18v5.24c0,.08-.02.17-.06.25-.04.08-.09.14-.14.17l-.85.49c-.05.03-.1.03-.14,0s-.06-.1-.06-.18v-.26c-.04.11-.09.21-.14.32-.06.11-.13.22-.21.33-.08.11-.18.22-.29.32-.11.1-.24.2-.39.29-.47.27-.85.28-1.13.03-.28-.25-.42-.82-.42-1.7v-3.09Z"/>
        <path class="cls-6" d="m228.48,118.1c0,.17.02.29.07.36.05.07.13.07.24,0l.58-.34c.05-.03.1-.03.14,0,.04.04.06.1.06.18v1.14c0,.08-.02.17-.06.25s-.09.14-.14.17l-.69.4c-.23.13-.44.2-.62.21-.19,0-.35-.05-.48-.16-.13-.12-.23-.29-.31-.52-.07-.23-.11-.52-.11-.86v-1.89l-.54.31c-.05.03-.1.03-.14,0-.04-.04-.06-.1-.06-.18v-1.14c0-.08.02-.17.06-.25.04-.08.09-.14.14-.17l.54-.31v-1.83c0-.08.02-.16.06-.25.04-.08.09-.14.14-.17l.92-.53c.05-.03.1-.03.14,0,.04.04.06.1.06.18v1.83l.82-.48c.05-.03.1-.03.14,0,.04.04.06.1.06.18v1.14c0,.08-.02.17-.06.25-.04.08-.09.14-.14.17l-.82.48v1.82Z"/>
      </g>
      <g>
        <path class="cls-11" d="m205.66,162.88c.15-.03.28-.03.4,0,.12.03.22.09.31.17.09.08.15.18.2.29.05.11.08.23.08.36,0,.05-.01.09-.03.13-.02.05-.05.08-.07.09l-.64.37s-.08.04-.11.03c-.03,0-.06-.02-.09-.04,0,0-.03-.03-.05-.05-.02-.02-.05-.04-.09-.06-.04-.02-.09-.02-.15-.01-.06,0-.13.04-.22.08-.06.04-.12.08-.18.12-.06.05-.11.1-.15.15-.04.05-.08.11-.11.18-.03.07-.04.14-.04.21s.01.13.05.16c.03.03.08.05.16.05s.17-.01.29-.04c.12-.03.27-.07.45-.12.18-.05.34-.07.47-.06.13,0,.25.05.34.13.09.08.16.19.2.34.04.15.07.34.07.58,0,.21-.03.42-.08.63-.05.21-.13.41-.22.6-.1.19-.21.37-.34.54-.13.17-.28.32-.44.45v.54c0,.05-.01.11-.04.17-.03.06-.06.09-.09.11l-.64.37s-.07.02-.09,0c-.03-.03-.04-.07-.04-.12v-.56c-.16.04-.3.04-.42,0-.13-.03-.23-.09-.32-.16-.09-.08-.16-.18-.21-.31-.05-.12-.08-.26-.08-.42,0-.05.01-.09.03-.14.02-.05.05-.08.07-.09l.64-.37s.08-.04.11-.04c.03,0,.05.01.08.03.01.01.03.03.06.06.03.03.06.06.11.08.04.02.1.03.17.03.07,0,.15-.03.25-.09.17-.1.32-.21.44-.34.12-.12.17-.26.17-.42,0-.08-.02-.13-.06-.15-.04-.02-.11-.04-.19-.03-.09,0-.2.03-.33.06-.13.04-.29.08-.47.12-.34.08-.58.04-.74-.13-.16-.17-.23-.47-.23-.91,0-.18.02-.36.06-.55.04-.19.1-.37.18-.56.08-.18.18-.36.29-.53.12-.17.25-.32.4-.46v-.56c0-.06.01-.11.04-.17.03-.06.06-.09.09-.11l.64-.37s.07-.02.09,0c.03.03.04.06.04.12v.57Z"/>
        <path class="cls-11" d="m208.98,160.97c.15-.03.28-.03.4,0,.12.03.22.09.31.17.08.08.15.18.2.29.05.11.08.23.08.36,0,.05-.01.09-.03.14-.02.05-.05.08-.07.09l-.64.37s-.08.04-.11.03c-.03,0-.06-.02-.09-.04,0-.01-.03-.03-.05-.05-.02-.02-.05-.04-.09-.06-.04-.02-.09-.02-.15-.01-.06,0-.13.03-.22.08-.06.04-.12.08-.18.12-.06.04-.11.1-.15.15-.04.05-.08.11-.11.18-.03.07-.04.14-.04.21s.02.13.05.16c.03.03.08.05.16.05.07,0,.17-.01.29-.04.12-.03.27-.07.45-.12.18-.05.34-.07.47-.06.13,0,.25.05.34.13.09.08.16.19.2.34.04.15.07.34.07.58,0,.21-.03.42-.08.63-.05.21-.13.41-.22.6-.1.19-.21.37-.34.54-.13.17-.28.32-.44.45v.54c0,.05-.01.11-.04.17-.03.05-.06.09-.09.11l-.64.37s-.07.02-.09,0c-.03-.03-.04-.07-.04-.12v-.56c-.16.04-.3.04-.43,0-.13-.03-.23-.09-.32-.16-.09-.08-.16-.18-.21-.31-.05-.12-.08-.27-.08-.42,0-.05,0-.09.03-.13.02-.05.05-.08.07-.09l.64-.37s.08-.04.11-.04c.03,0,.05.02.08.04.01.01.03.03.06.06.03.03.06.06.1.08.05.02.1.03.17.03.07,0,.15-.03.25-.09.17-.1.32-.21.44-.34.12-.13.17-.26.17-.41,0-.08-.02-.13-.06-.15-.04-.03-.11-.04-.19-.03-.09,0-.19.03-.33.06-.13.04-.29.08-.47.12-.34.08-.58.04-.74-.13-.16-.17-.23-.47-.23-.91,0-.18.02-.36.06-.55.04-.19.1-.37.18-.56.08-.18.18-.36.29-.53.12-.17.25-.32.4-.46v-.56c0-.06.01-.11.04-.17.03-.06.06-.09.09-.12l.64-.37s.07-.02.09,0c.03.02.04.07.04.12v.57Z"/>
        <path class="cls-11" d="m212.3,159.05c.15-.03.28-.03.4,0,.12.03.22.09.31.17.08.08.15.18.2.29.05.11.08.23.08.36,0,.05-.01.09-.03.14-.02.04-.04.08-.07.09l-.64.37s-.08.04-.11.03c-.03,0-.06-.02-.09-.04,0,0-.03-.03-.05-.05-.02-.02-.05-.04-.09-.06-.04-.02-.09-.02-.15-.01-.06,0-.13.03-.22.08-.06.04-.12.08-.18.12-.06.05-.11.1-.15.15-.04.05-.08.11-.11.18-.03.07-.04.14-.04.21s.01.13.05.16c.03.03.08.05.16.05.07,0,.17-.02.29-.04.12-.03.27-.07.45-.12.18-.05.34-.07.47-.06.13,0,.25.05.34.13.09.08.16.19.2.34.04.15.07.34.07.58,0,.21-.03.42-.08.63-.05.21-.13.41-.22.6-.1.19-.21.37-.34.54-.13.17-.28.32-.44.45v.54c0,.05-.01.11-.04.17-.03.06-.06.09-.09.12l-.64.37s-.07.02-.09,0c-.03-.03-.04-.07-.04-.12v-.56c-.16.04-.3.04-.42,0-.13-.03-.23-.08-.32-.16-.09-.08-.16-.18-.21-.31-.05-.12-.08-.27-.08-.42,0-.04.01-.09.03-.13.02-.05.05-.08.07-.09l.64-.37s.08-.04.11-.04c.03,0,.05.01.08.03.01.01.03.04.06.06.03.03.06.06.11.08.04.02.1.03.17.03s.15-.03.25-.09c.17-.1.32-.21.44-.34.12-.13.17-.26.17-.42,0-.07-.02-.13-.06-.15-.04-.03-.11-.04-.19-.03-.09,0-.2.03-.33.06-.13.04-.29.08-.47.12-.34.09-.58.04-.74-.13s-.23-.47-.23-.91c0-.18.02-.36.06-.55.04-.19.1-.37.18-.56.08-.18.18-.36.29-.53.12-.17.25-.32.4-.46v-.56c0-.05.01-.11.04-.17.03-.06.06-.09.09-.11l.64-.37s.07-.02.09,0c.03.02.04.06.04.12v.57Z"/>
      </g>
      <g>
        <path class="cls-11" d="m182.65,243.59l57.02-32.91c1.11-.64,2.02-.12,2.02,1.16l.04,8.43c0,1.28-.89,2.84-2,3.49l-57.08,32.88c-1.11.64-2.01.12-2.01-1.16v-8.4c0-1.28.9-2.84,2.01-3.49Z"/>
        <g>
          <path class="cls-3" d="m185.74,245.58c.23-.13.44-.2.64-.21.19,0,.36.05.5.16.14.11.25.28.33.5.08.22.12.49.13.8,0,.11,0,.21,0,.3v.52c0,.09,0,.19,0,.29,0,.33-.05.64-.13.95-.08.31-.18.6-.32.87-.14.27-.3.51-.49.73-.19.21-.4.39-.63.52l-1.36.79s-.07.02-.1,0c-.03-.03-.04-.07-.04-.12v-5.01c0-.06.01-.11.04-.17.03-.06.06-.09.1-.12l1.34-.77Zm.66,1.75c-.02-.58-.25-.75-.69-.5l-.51.3v2.95l.54-.31c.42-.24.64-.67.66-1.27,0-.11,0-.21,0-.31v-.55c0-.09,0-.19,0-.3Z"/>
          <path class="cls-3" d="m188.64,247.76c0,.12.01.21.04.27.03.06.06.1.11.12.04.02.09.03.15.01.05-.01.11-.03.16-.06.1-.06.18-.12.24-.18.06-.06.11-.14.15-.22.04-.07.06-.11.08-.13.02-.02.05-.05.09-.07l.65-.38c.07-.04.11,0,.11.11,0,.06-.03.17-.08.33-.05.16-.13.33-.23.52-.11.19-.24.39-.41.58-.17.2-.37.36-.6.49-.22.13-.41.19-.58.19-.17,0-.31-.05-.43-.17-.12-.11-.2-.28-.26-.51s-.09-.5-.09-.83c0-.3.03-.59.09-.88.06-.29.15-.56.26-.81.12-.25.26-.48.43-.69.17-.2.36-.37.58-.5.25-.14.45-.2.63-.17.17.03.31.11.42.25.11.14.19.32.24.54.05.22.07.46.07.71v.22c0,.06-.01.11-.04.17-.03.06-.06.09-.1.12l-1.68.97Zm.45-1.75c-.14.08-.25.21-.32.38-.07.17-.12.34-.13.51l.91-.52c-.01-.15-.06-.27-.13-.36-.07-.09-.18-.09-.32,0Z"/>
          <path class="cls-3" d="m191.81,247.29c0,.06-.01.11-.04.17-.03.06-.06.1-.1.12l-.63.37s-.07.02-.1,0c-.03-.03-.04-.07-.04-.12v-5.09c0-.06.01-.11.04-.17.03-.06.06-.1.1-.12l.63-.37s.07-.02.1,0c.03.03.04.07.04.12v5.09Z"/>
          <path class="cls-3" d="m193.31,241.97c0,.06-.01.11-.04.17-.03.06-.06.1-.1.12l-.63.37s-.07.02-.1,0c-.03-.03-.04-.07-.04-.12v-.78c0-.06.01-.11.04-.17.03-.06.06-.1.1-.12l.63-.37s.07-.02.1,0c.03.03.04.07.04.12v.78Zm0,4.46c0,.06-.01.11-.04.17-.03.06-.06.1-.1.12l-.63.37s-.07.02-.1,0c-.03-.03-.04-.07-.04-.12v-3.62c0-.06.01-.11.04-.17.03-.06.06-.1.1-.12l.63-.37s.07-.02.1,0c.03.03.04.07.04.12v3.62Z"/>
          <path class="cls-3" d="m194.77,245.73s-.04-.06-.06-.1l-1.02-3.01s0-.03,0-.05c0-.05.01-.1.04-.15.02-.05.05-.09.09-.1l.65-.37c.05-.03.09-.03.11,0,.02.03.04.06.06.09l.55,1.7.55-2.34s.03-.1.06-.16c.02-.05.06-.1.11-.13l.65-.37s.06-.02.09,0c.02.02.04.06.04.11,0,.02,0,.04,0,.06l-1.02,4.19c-.02.06-.04.11-.06.16-.02.05-.06.1-.11.12l-.6.34s-.09.03-.11,0Z"/>
          <path class="cls-3" d="m197.7,242.53c0,.12.01.21.04.27.03.06.06.1.11.12.04.02.09.03.15.01.05-.01.11-.03.16-.06.1-.06.18-.12.24-.19.06-.06.11-.14.15-.22.04-.07.06-.11.08-.14.02-.02.05-.04.09-.07l.65-.38c.07-.04.11,0,.11.11,0,.06-.02.17-.08.33-.05.16-.13.33-.23.52-.11.19-.24.39-.41.58-.17.19-.37.36-.6.49-.22.12-.41.19-.58.19-.17,0-.31-.05-.43-.17-.12-.11-.2-.28-.26-.51-.06-.22-.09-.5-.09-.83,0-.3.03-.59.09-.88.06-.29.15-.56.26-.81.12-.25.26-.48.43-.69.17-.2.36-.37.58-.49.25-.14.45-.2.63-.17.17.03.31.11.42.25.11.14.19.32.24.54.05.22.07.46.07.71v.22c0,.06-.01.11-.04.17-.03.06-.06.1-.09.12l-1.68.97Zm.45-1.75c-.14.08-.25.21-.32.38-.07.17-.12.34-.13.51l.91-.52c-.01-.15-.06-.27-.13-.36-.07-.09-.18-.09-.32,0Z"/>
          <path class="cls-3" d="m201.8,237.7s.07-.02.1,0c.03.03.04.07.04.12v.79c0,.06-.01.11-.04.17-.03.06-.06.1-.1.12l-.46.26c-.31.18-.46.51-.46.98v1.91c0,.06-.01.11-.04.17-.03.06-.06.1-.1.12l-.63.37s-.07.02-.1,0c-.03-.03-.04-.07-.04-.12v-3.62c0-.06.01-.11.04-.17.03-.06.06-.1.1-.12l.58-.34s.07-.02.1,0c.03.03.04.07.04.12v.18c.08-.16.17-.31.28-.44.11-.14.24-.25.39-.33l.3-.17Z"/>
          <path class="cls-3" d="m204.36,238.68c0,.12.02.2.05.25.03.05.09.05.17,0l.4-.23s.07-.02.1,0c.03.03.04.07.04.12v.79c0,.06-.01.11-.04.17-.03.06-.06.1-.1.12l-.48.28c-.16.09-.3.14-.43.14-.13,0-.24-.03-.33-.11-.09-.08-.16-.2-.21-.36-.05-.16-.08-.36-.08-.6v-1.3l-.37.22s-.07.02-.1,0c-.03-.03-.04-.07-.04-.12v-.79c0-.06.01-.11.04-.17.03-.06.06-.1.1-.12l.37-.21v-1.27c0-.06.01-.11.04-.17.03-.06.06-.1.1-.12l.64-.37s.07-.02.1,0c.03.03.04.07.04.12v1.26l.57-.33s.07-.02.1,0c.03.03.04.07.04.12v.78c0,.06-.01.11-.04.17-.03.06-.06.1-.1.12l-.57.33v1.26Z"/>
          <path class="cls-3" d="m208.18,235.74c0,.08,0,.17,0,.29s0,.22,0,.3c0,.25-.04.51-.11.76-.07.26-.16.5-.28.73-.12.23-.26.44-.42.63-.17.19-.35.34-.56.46-.21.12-.39.18-.56.18-.17,0-.31-.04-.43-.14-.12-.1-.21-.23-.28-.41-.07-.18-.11-.39-.11-.63,0-.08,0-.17,0-.3s0-.22,0-.3c0-.25.04-.5.11-.76.07-.26.16-.5.28-.73.12-.23.26-.44.43-.64.17-.19.35-.35.56-.46.2-.12.39-.18.56-.18.16,0,.31.05.43.14.12.09.21.23.28.41.07.18.1.39.11.64Zm-1.83,1.62c.01.19.06.32.14.38.08.06.19.06.33-.02.13-.08.24-.2.33-.36.08-.16.13-.34.14-.54,0-.08,0-.17,0-.27s0-.18,0-.26c-.01-.19-.06-.32-.14-.38-.08-.06-.19-.06-.33.02-.13.08-.24.2-.33.36-.08.16-.13.34-.14.54,0,.08,0,.17,0,.27s0,.18,0,.26Z"/>
          <path class="cls-3" d="m210.83,234.95c0,.12.02.2.05.25.03.04.09.05.17,0l.4-.23s.07-.02.1,0c.03.03.04.07.04.12v.79c0,.06-.01.11-.04.17-.03.06-.06.1-.1.12l-.48.28c-.16.09-.3.14-.43.14-.13,0-.24-.03-.33-.11-.09-.08-.16-.2-.21-.36-.05-.16-.08-.36-.08-.6v-1.3l-.37.22s-.07.02-.1,0c-.03-.03-.04-.07-.04-.12v-.79c0-.06.01-.11.04-.17.03-.06.06-.1.1-.12l.37-.21v-1.27c0-.06.01-.11.04-.17.03-.06.06-.1.1-.12l.64-.37s.07-.02.09,0c.03.03.04.07.04.12v1.26l.57-.33s.07-.02.1,0c.03.03.04.07.04.12v.78c0,.06-.01.11-.04.17-.03.06-.06.1-.1.12l-.57.33v1.26Z"/>
          <path class="cls-3" d="m214.7,234.08c0,.06-.01.11-.04.17-.03.06-.06.1-.1.12l-.63.37s-.07.02-.1,0c-.03-.03-.04-.07-.04-.12v-1.96c0-.22-.04-.38-.11-.47-.07-.09-.18-.1-.33,0-.15.09-.26.22-.33.39-.07.17-.1.37-.1.6v1.96c0,.06-.01.11-.04.17-.03.06-.06.1-.1.12l-.63.37s-.07.02-.1,0c-.03-.03-.04-.07-.04-.12v-5.09c0-.06.01-.11.04-.17.03-.06.06-.1.1-.12l.63-.37s.07-.02.1,0c.03.03.04.07.04.12v1.65c.06-.14.15-.3.27-.47.12-.17.26-.3.42-.39.16-.09.31-.14.44-.15.13,0,.25.03.34.12.1.09.17.23.22.42.05.19.08.44.08.75v2.13Z"/>
          <path class="cls-3" d="m216.16,228.77c0,.06-.01.12-.04.17-.03.06-.06.1-.1.12l-.63.37s-.07.02-.1,0c-.03-.03-.04-.07-.04-.12v-.78c0-.06.01-.11.04-.17.03-.06.06-.1.1-.12l.63-.37s.07-.02.1,0c.03.03.04.07.04.12v.78Zm0,4.46c0,.06-.01.11-.04.17-.03.06-.06.1-.1.12l-.63.37s-.07.02-.1,0c-.03-.03-.04-.07-.04-.12v-3.62c0-.06.01-.11.04-.17.03-.06.06-.1.1-.12l.63-.37s.07-.02.1,0c.03.03.04.07.04.12v3.62Z"/>
          <path class="cls-3" d="m218.23,231.04c0-.06-.01-.09-.04-.11-.03-.02-.07-.02-.13,0-.06.01-.14.04-.24.08-.1.04-.22.08-.37.12-.25.07-.45.04-.59-.09-.14-.14-.21-.38-.21-.73,0-.18.03-.36.09-.54.06-.18.14-.36.24-.53.1-.17.23-.33.37-.48.14-.15.31-.27.48-.38.17-.1.34-.16.48-.18.15-.02.27-.01.38.03.11.04.19.11.25.2.06.1.1.21.1.33,0,.05,0,.11-.04.17-.03.06-.06.1-.1.12l-.6.35s-.07.03-.09.01c-.02-.01-.05-.03-.08-.04-.03-.01-.07-.02-.12-.02-.05,0-.12.03-.2.08-.08.04-.14.1-.2.16-.05.06-.08.13-.08.21,0,.06,0,.1.03.12.02.02.05.03.1.02.05-.01.12-.03.21-.06.09-.03.21-.07.36-.12.3-.1.53-.07.67.09.14.16.21.4.21.71,0,.18-.03.36-.09.54-.06.19-.14.37-.25.55-.11.18-.25.35-.4.51-.16.16-.34.29-.54.41-.2.12-.38.18-.53.2-.15.02-.28,0-.39-.04-.1-.05-.18-.12-.24-.22-.06-.1-.09-.21-.09-.33,0-.05,0-.11.04-.17.03-.06.06-.1.1-.12l.62-.36s.06-.02.08,0c.02.02.04.04.07.06.03.02.07.03.12.03.05,0,.13-.03.23-.09.1-.06.19-.13.26-.21.07-.08.11-.16.11-.24Z"/>
          <path class="cls-3" d="m220.48,229.8c0-.34.08-.67.25-.99.17-.32.45-.64.83-.97l.59-.5c0-.12-.02-.21-.06-.27-.04-.05-.12-.05-.23,0-.08.05-.14.1-.18.15s-.07.11-.09.14c-.03.06-.06.1-.09.13-.03.03-.06.05-.1.07l-.64.37s-.06.02-.08,0c-.02-.02-.03-.05-.03-.11,0-.12.04-.27.1-.43.06-.16.14-.33.25-.5.11-.17.23-.33.38-.49.15-.16.3-.29.48-.38.2-.12.38-.18.53-.19.15,0,.28.03.38.1.1.08.17.2.22.36.05.16.07.36.07.58v2.35c0,.06-.01.11-.04.17-.03.06-.06.1-.1.12l-.63.37s-.07.02-.1,0c-.03-.03-.04-.07-.04-.12v-.22c-.08.2-.18.38-.3.54-.12.16-.28.3-.47.41-.14.08-.27.13-.39.13-.11,0-.21-.03-.28-.09-.08-.06-.13-.16-.17-.29-.04-.13-.06-.28-.06-.45Zm1.15-.48c.08-.04.14-.1.21-.18.06-.07.12-.16.16-.25.05-.09.09-.2.11-.3.03-.11.04-.21.04-.31l-.46.38c-.09.08-.16.16-.22.26-.06.09-.08.19-.08.29s.02.15.06.17c.04.02.1,0,.18-.04Z"/>
          <path class="cls-3" d="m224.64,224.43c.1-.06.18-.09.26-.1.07-.01.14,0,.19,0,.05.02.1.04.14.07.04.03.07.07.09.1v-1.65c0-.06.01-.11.04-.17.03-.06.06-.1.1-.12l.63-.37s.07-.02.1,0c.03.03.04.07.04.12v5.09c0,.06-.01.11-.04.17-.03.06-.06.1-.1.12l-.61.35s-.07.02-.1,0c-.03-.03-.04-.07-.04-.12v-.18c-.03.07-.06.15-.1.22-.04.07-.08.15-.13.22-.05.07-.12.15-.19.22-.08.07-.17.14-.28.2-.15.09-.29.14-.43.14-.13,0-.25-.03-.35-.12-.1-.09-.18-.23-.24-.41-.06-.19-.1-.43-.1-.73,0-.08,0-.18,0-.31s0-.24,0-.32c0-.31.04-.59.1-.85.06-.26.14-.49.24-.7.1-.21.22-.38.35-.53.13-.15.28-.27.43-.36Zm-.23,2.01c0,.15,0,.29,0,.43.01.18.05.31.12.41.07.09.18.1.34,0,.08-.04.14-.1.19-.17.05-.07.1-.14.13-.22.04-.08.06-.16.08-.25.02-.08.03-.17.04-.25,0-.08.01-.18.01-.28s0-.19-.01-.27c0-.07-.02-.14-.04-.2-.02-.06-.05-.11-.08-.15-.04-.04-.08-.06-.13-.07-.05,0-.12.01-.19.06-.16.09-.27.22-.34.4-.07.17-.11.35-.12.54Z"/>
          <path class="cls-3" d="m228.64,222.2s.07-.02.1,0c.03.03.04.07.04.12v.78c0,.06-.01.11-.04.17-.03.06-.06.1-.1.12l-.46.26c-.31.18-.46.51-.46.98v1.91c0,.06-.01.11-.04.17-.03.06-.06.1-.1.12l-.63.37s-.07.02-.1,0c-.03-.03-.04-.07-.04-.12v-3.62c0-.06.01-.11.04-.17.03-.06.06-.1.1-.12l.58-.34s.07-.02.1,0c.03.03.04.07.04.12v.18c.08-.16.17-.3.28-.44.11-.14.24-.25.39-.33l.3-.17Z"/>
          <path class="cls-3" d="m229.88,223.94c0,.12.01.21.04.27.03.06.06.1.11.12.04.02.09.03.15.01.05-.01.11-.03.16-.06.1-.06.18-.12.24-.18.06-.06.11-.14.15-.22.04-.07.06-.11.08-.13.02-.02.05-.05.09-.07l.66-.38c.07-.04.11,0,.11.11,0,.06-.02.17-.08.33-.05.16-.13.33-.23.52-.11.19-.24.39-.41.58-.17.19-.37.36-.6.49-.22.13-.41.19-.58.19-.17,0-.31-.05-.43-.17-.12-.11-.2-.28-.26-.51-.06-.22-.09-.5-.09-.83,0-.3.03-.59.09-.88.06-.29.15-.56.26-.81.12-.25.26-.48.43-.69.17-.2.36-.37.58-.5.25-.14.45-.2.63-.17.17.03.31.11.42.25.11.14.19.32.24.54.05.22.07.46.07.71v.22c0,.06-.01.11-.04.17-.03.06-.06.09-.1.12l-1.68.97Zm.45-1.75c-.14.08-.25.21-.32.38-.07.17-.12.34-.13.51l.91-.52c-.01-.15-.06-.27-.13-.36-.07-.09-.18-.09-.32,0Z"/>
          <path class="cls-3" d="m233.64,222.14c0-.06-.01-.09-.04-.11-.03-.02-.07-.02-.13,0-.06.01-.14.04-.24.08-.1.04-.22.08-.37.12-.25.07-.45.04-.59-.09-.14-.14-.21-.38-.21-.73,0-.18.03-.36.09-.54.06-.18.14-.36.24-.53.1-.17.23-.33.37-.48.14-.15.31-.27.48-.38.17-.1.33-.16.48-.18.15-.02.27-.01.38.03s.19.11.25.2c.06.1.1.21.1.33,0,.05,0,.11-.04.17-.03.06-.06.1-.1.12l-.6.35s-.07.03-.09.01c-.02-.01-.05-.03-.08-.04-.03-.01-.07-.02-.12-.02-.05,0-.12.03-.2.08-.08.04-.14.1-.2.16-.05.06-.08.13-.08.21,0,.06,0,.1.03.12.02.02.05.03.1.02.05-.01.12-.03.21-.06.09-.03.21-.07.36-.12.3-.1.53-.07.67.09.14.16.21.4.21.71,0,.18-.03.36-.09.54-.06.19-.14.37-.25.55-.11.18-.25.35-.4.51-.16.16-.34.29-.54.41-.2.12-.38.18-.53.2-.15.02-.28,0-.39-.05-.1-.05-.18-.12-.24-.22-.06-.1-.09-.21-.09-.33,0-.05,0-.11.04-.17.03-.06.06-.1.1-.12l.62-.36s.06-.02.08,0c.02.02.04.04.07.06.03.02.07.03.12.03.05,0,.13-.03.23-.09.1-.06.19-.13.26-.21.07-.08.11-.16.11-.24Z"/>
          <path class="cls-3" d="m236.47,220.51c0-.06-.01-.09-.04-.11-.03-.02-.07-.02-.13,0-.06.01-.14.04-.24.08-.1.04-.22.08-.37.12-.26.08-.45.04-.59-.09-.14-.14-.21-.38-.21-.73,0-.18.03-.36.09-.54.06-.18.14-.36.24-.53.1-.17.23-.33.37-.48.14-.15.3-.27.48-.38.17-.1.34-.16.48-.18.15-.02.28-.01.38.03.11.04.19.11.25.2.06.1.1.21.1.33,0,.05,0,.11-.04.17-.03.06-.06.1-.1.12l-.6.35s-.07.03-.09.01c-.02-.01-.05-.03-.08-.04-.03-.01-.07-.02-.12-.02-.05,0-.12.03-.2.08-.08.04-.14.1-.19.16-.05.06-.08.13-.08.21,0,.06,0,.1.03.12.02.02.05.03.1.02.05-.01.12-.03.21-.06.09-.03.21-.07.36-.12.31-.1.53-.07.67.09.14.16.21.4.21.71,0,.18-.03.36-.08.54-.06.19-.14.37-.25.55-.11.18-.25.35-.4.51-.16.16-.34.3-.54.41-.2.12-.38.18-.53.2-.15.02-.28,0-.39-.04-.1-.05-.18-.12-.24-.22-.06-.1-.09-.21-.09-.33,0-.05,0-.11.04-.17.03-.06.06-.1.1-.12l.62-.36s.06-.02.08,0c.02.02.04.04.07.05.03.02.07.03.12.03.05,0,.13-.03.23-.09.1-.06.19-.13.26-.21.07-.08.11-.16.11-.24Z"/>
        </g>
      </g>
      <g>
        <g>
          <path class="cls-11" d="m174.83,162.76l23.52-13.48c.38-.22.69-.04.69.4v22.41c0,.44-.31.98-.69,1.2l-23.52,13.46c-.38.22-.69.04-.69-.4v-22.39c0-.44.31-.98.69-1.2Z"/>
          <path class="cls-2" d="m175.42,163.95s.05-.08.08-.11l22.26-12.75v20.99s-.05.08-.08.11l-22.26,12.73v-20.97Z"/>
          <path class="cls-3" d="m197.76,172.08v-1.98l-7.04-4.05-1.64,3.84,1.65,2.29-8.53-6.17-6.77,13.98v4.94l22.26-12.73s.08-.11.08-.11Z"/>
          <path class="cls-3" d="m194.01,159.42c0,1.34-.82,2.9-1.82,3.48-1.01.58-1.82-.04-1.82-1.38s.82-2.9,1.82-3.48c1.01-.58,1.82.04,1.82,1.38Z"/>
        </g>
        <g>
          <path class="cls-6" d="m204.58,146.94l28.39-16.39c.76-.44,1.38-.08,1.38.8v1.3c0,.88-.62,1.96-1.38,2.4l-28.39,16.39c-.76.44-1.38.08-1.38-.8v-1.3c0-.88.62-1.96,1.38-2.4Z"/>
          <path class="cls-11" d="m204.58,152.94l18.01-10.4c.76-.44,1.38-.13,1.38.7s-.62,1.86-1.38,2.3l-18.01,10.4c-.76.44-1.38.13-1.38-.7s.62-1.86,1.38-2.3Z"/>
          <path class="cls-7" d="m204.3,159.09l42.82-24.64c.61-.35,1.11-.11,1.11.54s-.5,1.47-1.11,1.82l-42.82,24.64c-.61.35-1.11.11-1.11-.54s.5-1.47,1.11-1.82Z"/>
        </g>
      </g>
      <g>
        <path class="cls-6" d="m193.82,195.43l28.39-16.39c.76-.44,1.38-.08,1.38.8v1.3c0,.88-.62,1.96-1.38,2.4l-28.39,16.39c-.76.44-1.38.08-1.38-.8v-1.3c0-.88.62-1.96,1.38-2.4Z"/>
        <path class="cls-11" d="m193.82,201.43l18-10.4c.76-.44,1.38-.13,1.38.7s-.62,1.86-1.38,2.3l-18.01,10.4c-.76.44-1.38.13-1.38-.7s.62-1.86,1.38-2.3Z"/>
        <path class="cls-7" d="m193.55,207.16l42.82-24.64c.61-.35,1.11-.11,1.11.54s-.5,1.47-1.11,1.82l-42.82,24.64c-.61.35-1.11.11-1.11-.54s.5-1.47,1.11-1.82Z"/>
        <path class="cls-7" d="m193.55,212.95l42.82-24.64c.61-.35,1.11-.11,1.11.54s-.5,1.47-1.11,1.82l-42.82,24.64c-.61.35-1.11.11-1.11-.54s.5-1.47,1.11-1.82Z"/>
        <path class="cls-7" d="m193.55,218.74l42.82-24.64c.61-.35,1.11-.11,1.11.54s-.5,1.47-1.11,1.82l-42.82,24.64c-.61.35-1.11.11-1.11-.54s.5-1.47,1.11-1.82Z"/>
      </g>
      <path class="cls-7" d="m186.24,201.85c0,1.89-1.15,4.08-2.56,4.89-1.41.82-2.56-.05-2.56-1.94s1.15-4.08,2.56-4.89c1.41-.82,2.56.05,2.56,1.94Z"/>
      <path class="cls-11" d="m185.17,202.48c0,1.09-.66,2.36-1.48,2.84s-1.49-.03-1.49-1.12.66-2.36,1.49-2.84,1.48.03,1.48,1.12Z"/>
    </g>
  </g>
  <g id="Icons">
    <g id="Check_Mark" data-name="Check Mark">
      <g id="Clock">
        <path class="cls-5" d="m133.37,157.17h0s-.02-.01-.02-.01c0,0,0,0,0,0l-5.24-2.93s0,0,0,0l-.03-.02h0c-2.45-1.19-5.69-.78-9.14,1.52-6.95,4.63-12.15,15.13-11.61,23.46.27,4.15,1.91,6.98,4.35,8.2h0s.02.01.02.01c0,0,0,0,0,0l5.25,2.93s0,0,0,0h.03s0,.01,0,.01c2.45,1.2,5.69.79,9.15-1.52,6.95-4.63,12.15-15.13,11.61-23.46-.27-4.15-1.91-6.98-4.35-8.2Z"/>
        <path class="cls-13" d="m116.74,190.25l-5.07-2.83h0s-.02-.01-.02-.01c-2.44-1.22-4.08-4.05-4.34-8.2-.24-3.72.67-7.86,2.35-11.72l5.25,2.92c-1.69,3.86-2.59,8.01-2.35,11.72.26,4.06,1.84,6.86,4.19,8.12Z"/>
        <ellipse class="cls-6" cx="125.13" cy="173.75" rx="18.51" ry="10.69" transform="translate(-86.1 208.82) rotate(-63.66)"/>
      </g>
      <path id="Check" class="cls-11" d="m133.07,161.23c-1.03-.5-2.28-.07-2.78.96l-8.85,18.23-1.77-1.92c-.77-.84-2.09-.89-2.93-.12-.84.78-.89,2.09-.12,2.93l3.83,4.15c.37.4.87.63,1.41.66.14,0,.27,0,.42-.02.68-.1,1.27-.53,1.56-1.15l10.18-20.96c.5-1.03.07-2.28-.96-2.78Z"/>
    </g>
    <g id="Check_Mark-2" data-name="Check Mark">
      <g id="Clock-2" data-name="Clock">
        <path class="cls-5" d="m250.09,89.82h0s-.02-.01-.02-.01c0,0,0,0,0,0l-5.24-2.93s0,0,0,0l-.03-.02h0c-2.45-1.19-5.69-.78-9.14,1.52-6.95,4.63-12.15,15.13-11.61,23.46.27,4.15,1.91,6.98,4.35,8.2h0s.02.01.02.01c0,0,0,0,0,0l5.25,2.93s0,0,0,0h.03s0,.01,0,.01c2.45,1.2,5.69.79,9.15-1.52,6.95-4.63,12.15-15.13,11.61-23.46-.27-4.15-1.91-6.98-4.35-8.2Z"/>
        <path class="cls-13" d="m233.46,122.9l-5.07-2.83h0s-.02-.01-.02-.01c-2.44-1.22-4.08-4.05-4.34-8.2-.24-3.72.67-7.86,2.35-11.72l5.25,2.92c-1.69,3.86-2.59,8.01-2.35,11.72.26,4.06,1.84,6.86,4.19,8.12Z"/>
        <path class="cls-6" d="m242.82,121.49c6.95-4.63,12.15-15.13,11.61-23.46-.53-8.33-6.6-11.33-13.55-6.7-6.95,4.63-12.15,15.13-11.61,23.46.53,8.33,6.6,11.33,13.55,6.71Z"/>
      </g>
      <path id="Check-2" data-name="Check" class="cls-11" d="m249.79,93.88c-1.03-.5-2.28-.07-2.78.96l-8.85,18.23-1.77-1.92c-.77-.84-2.09-.89-2.93-.12-.84.78-.89,2.09-.12,2.93l3.83,4.15c.37.4.87.63,1.41.66.14,0,.27,0,.42-.02.68-.1,1.27-.53,1.56-1.15l10.18-20.96c.5-1.03.07-2.28-.96-2.78Z"/>
    </g>
  </g>
</svg>